<?xml version="1.0" encoding="UTF-8"?>
<svg width="293px" height="291px" viewBox="0 0 293 291" version="1.1" xmlns="http://www.w3.org/2000/svg" xmlns:xlink="http://www.w3.org/1999/xlink">
    <!-- Generator: Sketch 50.2 (55047) - http://www.bohemiancoding.com/sketch -->
    <title>Group</title>
    <desc>Created with Sketch.</desc>
    <defs></defs>
    <g id="Product" stroke="none" stroke-width="1" fill="none" fill-rule="evenodd">
        <g id="Landing-Page-2" transform="translate(-796.000000, -533.000000)">
            <g id="Group" transform="translate(796.000000, 533.000000)">
                <g id="noun_Online-Booking_1739916_000000" fill-rule="nonzero">
                    <path d="M94.5,234.405063 C91.2670202,234.405063 88.0340404,235.691413 86.0942525,237.942525 C84.1544646,239.872049 82.5379747,243.409511 82.5379747,246.303797 C82.5379747,249.519672 83.8311666,252.735546 86.0942525,254.66507 C88.3573384,256.916182 91.2670202,258.202532 94.5,258.202532 C97.7329798,258.202532 100.96596,256.916182 102.905748,254.66507 C104.845535,252.735546 106.462025,249.198084 106.462025,246.303797 C106.462025,243.087923 105.168833,239.872049 102.905748,237.942525 C100.642662,235.691413 97.7329798,234.405063 94.5,234.405063 Z" id="Shape" fill="#D3D3D3"></path>
                    <path d="M189,192.175894 C189,180.729282 170.727276,180.41132 170.727276,192.175894 C170.727276,198.853084 171.04785,205.530274 171.04785,212.207464 C120.717715,213.797271 68.7847096,210.935618 18.7751488,217.612809 C17.8134265,151.794791 17.1722783,85.6588116 19.0957229,19.8407938 C43.7799292,18.8869095 142.19618,21.430601 166.880387,20.1587552 C167.200961,22.3844853 169.124405,39.554403 170.086128,45.5956703 C171.04785,52.9087834 181.306221,50.0471305 182.267944,44.0058631 C182.909092,39.2364415 184.832537,16.0252565 185.153111,10.3019506 C185.473685,5.21456759 180.665073,1.08106889 175.535887,0.763107453 C147.966514,-0.508738302 37.6890211,-0.190776863 10.1196479,1.71699177 C4.99046216,2.35291465 0.82299876,5.85049047 0.82299876,11.2558349 C-1.10044589,98.3772691 0.82299876,185.816665 1.78472108,272.938099 C1.78472108,277.707521 5.63161038,281.523058 10.440222,281.523058 C43.138781,282.158981 75.5167659,282.158981 108.215325,281.523058 C129.69379,281.205096 151.172255,281.205096 172.650721,278.661405 C177.459332,278.025482 183.229666,277.707521 186.114833,272.938099 C190.282296,265.307024 188.358852,250.044875 188.679426,241.777878 C189,225.243883 189,208.709888 189,192.175894 Z M19.0957229,264.35314 C19.0957229,252.270605 18.7751488,240.506032 18.7751488,228.423498 C44.1005033,230.013305 69.7464319,229.695343 95.0717864,230.649228 C120.397141,231.285151 145.401921,231.921073 170.727276,231.603112 C170.727276,232.556996 170.727276,250.680798 169.444979,261.491487 C168.162683,261.491487 67.8229873,264.989063 19.0957229,264.35314 Z" id="Shape" fill="#DBDBDB"></path>
                    <path d="M104.769001,38.3805045 C81.4017825,38.0685724 57.7144649,37.4447082 34.3472461,39.9401651 C28.5854661,40.5640293 28.2653673,48.3623321 34.3472461,48.9861964 C57.7144649,50.857789 81.4017825,49.6100606 104.769001,48.9861964 C111.811177,48.9861964 111.811177,38.3805045 104.769001,38.3805045 Z" id="Shape" fill="#DBDBDB"></path>
                    <path d="M84.2865581,72.8556933 C88.1713756,70.8657045 88.4951104,63.9007435 84.2865581,61.9107546 C76.840658,58.5941065 41.8773007,62.905749 34.4314005,64.2324083 C28.9279091,65.2274027 30.8703178,72.8556933 35.7263397,73.519023 C43.1722398,74.5140174 77.4881275,76.5040063 84.2865581,72.8556933 Z" id="Shape" fill="#DBDBDB"></path>
                    <path d="M36.809532,115.251568 C48.7914869,115.251568 60.7734417,115.916182 72.7553966,114.586953 C80.851312,113.590031 81.1751487,101.959277 72.7553966,101.294662 C60.7734417,100.630048 48.7914869,102.291584 36.809532,102.623891 C29.3612898,103.288506 29.0374532,115.583875 36.809532,115.251568 Z" id="Shape" fill="#DBDBDB"></path>
                    <path d="M35.3824655,152.179182 C44.3689316,152.179182 53.3553978,152.677643 62.3418639,151.680721 C68.4138005,150.93303 68.656678,142.209964 62.3418639,141.711503 C53.3553978,141.213042 44.3689316,142.459194 35.3824655,142.708425 C29.7962838,143.206886 29.5534063,152.428413 35.3824655,152.179182 Z" id="Shape-Copy" fill="#DBDBDB"></path>
                </g>
                <polygon id="Path-2" fill="#FFFFFF" points="188.30428 168 147 203.651145 188.30428 250 222 241.492932"></polygon>
                <g id="noun_click_1686300_000000" transform="translate(199.500000, 163.000000) rotate(-25.000000) translate(-199.500000, -163.000000) translate(125.000000, 39.000000)" fill="#DBDBDB" fill-rule="nonzero">
                    <path d="M148.016614,146.603256 C149.126421,133.911225 151.068583,115.976833 141.080319,106.043939 C136.086186,101.077492 128.594988,99.1460958 121.936144,100.249751 C117.496916,89.4891155 106.953747,83.1430999 96.1331272,86.1781508 C95.3007718,79.004394 93.3586092,72.106551 85.8674106,69.0715 C80.8732783,67.140104 76.4340495,66.8641903 72.2722725,68.2437589 C72.2722725,62.173657 71.9948207,55.8276414 71.7173689,49.7575395 C71.1624653,40.3764729 71.4399171,30.1676652 69.4977545,21.0625124 C66.1683329,6.71499881 52.0182912,-7.63251475 37.5907977,4.78360276 C22.6084005,18.0274614 27.3250811,45.6188336 27.6025329,63.2773119 C27.6025329,64.9327942 27.6025329,66.8641903 27.6025329,68.5196726 C27.6025329,68.5196726 27.3250811,68.5196726 27.3250811,68.5196726 C13.1750394,71.0028961 5.68384081,83.970841 3.46422642,97.2146997 C0.689708437,113.217696 -0.697550556,130.048433 0.967160236,146.051429 C2.63187103,162.606252 8.7358106,175.574197 16.2270092,190.197624 C24.5505631,206.476534 25.3829185,223.307271 28.1574365,240.965749 C29.2672437,247.311765 38.9780567,245.380369 39.2555085,239.58618 C39.8104121,226.342322 38.4231531,212.270722 34.2613761,199.578691 C29.8221473,185.783005 20.6662379,174.194628 16.7819128,160.398942 C12.8975876,146.603256 13.1750394,132.255742 14.2848466,118.184143 C15.117202,106.595766 14.8397502,86.7299783 27.8799847,82.039445 C27.8799847,87.5577194 28.1574365,93.3519076 28.1574365,98.870182 C28.4348883,110.458558 27.6025329,122.874676 30.3770509,134.463052 C31.2094063,137.498103 35.3711833,137.222189 36.2035387,134.463052 C40.6427675,118.73597 38.9780567,100.525664 38.9780567,84.5226685 C39.2555085,67.140104 38.9780567,49.7575395 39.8104121,32.374975 C40.0878639,26.8567005 43.4172854,6.16317137 53.1280984,14.7164968 C57.844779,18.8552026 57.5673272,27.6844417 57.5673272,33.2027161 C57.844779,50.5852806 59.232038,67.9678451 57.5673272,85.3504096 C56.7349718,93.0759939 68.6653991,93.903735 70.8850135,87.005892 C73.1046279,80.3839626 80.5958265,78.7284803 81.9830855,86.1781508 C82.8154409,90.0409429 82.5379891,93.903735 82.8154409,97.7665271 C83.0928927,103.560715 90.0291876,106.87168 94.1909646,102.45706 C101.682163,95.0073899 109.450814,100.525664 110.005717,109.906731 C110.283169,115.425005 117.219464,118.73597 121.381241,114.597264 C124.988114,111.010386 130.814602,114.32135 132.756765,117.908229 C135.808734,123.15059 135.253831,130.60026 135.253831,136.118535 C135.531283,149.362393 135.253831,163.709907 129.427343,175.850111 C124.433211,186.334832 117.219464,194.888157 113.890042,206.20062 C110.283169,217.788996 109.450814,230.205114 109.173362,242.069404 C108.89591,249.794988 121.658693,249.794988 121.381241,242.069404 C121.103789,223.583184 123.600855,207.304275 133.311668,191.577193 C141.912674,177.229679 146.629355,163.158079 148.016614,146.603256 Z" id="Shape"></path>
                </g>
            </g>
        </g>
    </g>
</svg>