<?xml version="1.0" encoding="utf-8"?>
<!-- Generator: Adobe Illustrator 21.0.2, SVG Export Plug-In . SVG Version: 6.00 Build 0)  -->
<svg version="1.1" id="Layer_1" xmlns="http://www.w3.org/2000/svg" xmlns:xlink="http://www.w3.org/1999/xlink" x="0px" y="0px"
	 viewBox="0 0 608 45" style="enable-background:new 0 0 525 48;" xml:space="preserve">
<style type="text/css">
	.st0{fill:"black";}
</style>
<polygon class="st0" points="0,0 21.2,0 21.2,41.8 0,41.8 0,0 "/>
<polygon class="st0" points="63.2,0 84.2,0 84.2,41.8 63.2,41.8 63.2,0 "/>
<polygon class="st0" points="40.7,38.6 40.7,30.5 33.4,31.5 34,28.5 26.3,21.5 27.9,19.1 26.2,15.7 30.6,15.7 31.9,13.6 36.7,17
	35.4,8.6 38.5,9.6 42,4.4 45.5,9.6 48.5,8.6 47.2,17 52,13.6 53.3,15.7 57.8,15.7 56,19.1 57.7,21.5 49.9,28.5 50.6,31.5 43.3,30.5
	43.3,38.6 40.7,38.6 "/>
<path class="st0" d="M371.9,16.7l-5.7-16.3h2.3l4.7,14.1h0l4.7-14.1h2.3l-5.8,16.3H371.9z"/>
<path class="st0" d="M388.7,16c-0.9,0.7-2,1-3.3,1c-0.9,0-1.8-0.2-2.5-0.5c-0.7-0.3-1.3-0.7-1.7-1.3c-0.5-0.6-0.8-1.2-1.1-2
	c-0.2-0.8-0.4-1.6-0.4-2.5c0-0.9,0.1-1.7,0.4-2.5c0.3-0.7,0.7-1.4,1.2-1.9c0.5-0.5,1.1-1,1.8-1.3c0.7-0.3,1.4-0.5,2.2-0.5
	c1.1,0,1.9,0.2,2.6,0.7c0.7,0.4,1.2,1,1.7,1.7c0.4,0.7,0.7,1.4,0.9,2.2c0.2,0.8,0.2,1.5,0.2,2.3h-8.8c0,0.5,0,1,0.2,1.5
	c0.1,0.5,0.4,0.9,0.7,1.2c0.3,0.4,0.7,0.6,1.2,0.9c0.5,0.2,1,0.3,1.7,0.3c0.8,0,1.5-0.2,2-0.6c0.5-0.4,0.9-1,1-1.7h1.9
	C390.1,14.3,389.5,15.3,388.7,16z M388.2,8.4c-0.2-0.4-0.4-0.8-0.7-1.1c-0.3-0.3-0.6-0.5-1.1-0.7c-0.4-0.2-0.9-0.3-1.3-0.3
	c-0.5,0-1,0.1-1.4,0.3c-0.4,0.2-0.7,0.4-1,0.7c-0.3,0.3-0.5,0.7-0.7,1.1c-0.2,0.4-0.3,0.8-0.3,1.3h6.8
	C388.5,9.2,388.4,8.8,388.2,8.4z"/>
<path class="st0" d="M397.6,4.9v1.7h-2.4V14c0,0.2,0,0.4,0.1,0.5c0,0.1,0.1,0.2,0.2,0.3c0.1,0.1,0.3,0.1,0.4,0.1
	c0.2,0,0.4,0,0.7,0h0.9v1.7h-1.5c-0.5,0-0.9,0-1.3-0.1c-0.4-0.1-0.6-0.2-0.9-0.4c-0.2-0.2-0.4-0.4-0.5-0.8
	c-0.1-0.3-0.2-0.8-0.2-1.3l0-7.5h-2V4.9h2V1.4h1.9v3.5H397.6z"/>
<path class="st0" d="M408.1,16c-0.9,0.7-2,1-3.3,1c-0.9,0-1.8-0.2-2.5-0.5c-0.7-0.3-1.3-0.7-1.7-1.3c-0.5-0.6-0.8-1.2-1.1-2
	c-0.2-0.8-0.4-1.6-0.4-2.5c0-0.9,0.1-1.7,0.4-2.5c0.3-0.7,0.7-1.4,1.2-1.9c0.5-0.5,1.1-1,1.8-1.3c0.7-0.3,1.4-0.5,2.2-0.5
	c1.1,0,1.9,0.2,2.6,0.7c0.7,0.4,1.2,1,1.7,1.7c0.4,0.7,0.7,1.4,0.9,2.2c0.2,0.8,0.2,1.5,0.2,2.3h-8.8c0,0.5,0,1,0.2,1.5
	c0.1,0.5,0.4,0.9,0.7,1.2c0.3,0.4,0.7,0.6,1.2,0.9c0.5,0.2,1,0.3,1.7,0.3c0.8,0,1.5-0.2,2-0.6c0.5-0.4,0.9-1,1-1.7h1.9
	C409.6,14.3,409,15.3,408.1,16z M407.7,8.4c-0.2-0.4-0.4-0.8-0.7-1.1c-0.3-0.3-0.6-0.5-1.1-0.7c-0.4-0.2-0.9-0.3-1.3-0.3
	c-0.5,0-1,0.1-1.4,0.3c-0.4,0.2-0.7,0.4-1,0.7c-0.3,0.3-0.5,0.7-0.7,1.1c-0.2,0.4-0.3,0.8-0.3,1.3h6.8
	C408,9.2,407.9,8.8,407.7,8.4z"/>
<path class="st0" d="M413.8,4.9v2.5h0c0.5-1,1.1-1.7,1.7-2.1c0.7-0.5,1.6-0.7,2.6-0.6v2.1c-0.8,0-1.4,0.1-2,0.3
	c-0.5,0.2-1,0.5-1.3,0.9c-0.3,0.4-0.6,0.9-0.7,1.5c-0.2,0.6-0.2,1.3-0.2,2v5.3H412V4.9H413.8z"/>
<path class="st0" d="M428.7,17c-0.5,0-0.9-0.1-1.2-0.4c-0.3-0.3-0.5-0.7-0.5-1.4c-0.5,0.6-1.1,1.1-1.9,1.4
	c-0.7,0.3-1.5,0.4-2.3,0.4c-0.5,0-1-0.1-1.5-0.2c-0.5-0.1-0.9-0.3-1.2-0.6c-0.4-0.3-0.6-0.6-0.8-1c-0.2-0.4-0.3-0.9-0.3-1.5
	c0-0.7,0.1-1.2,0.3-1.6c0.2-0.4,0.5-0.8,0.9-1c0.4-0.3,0.8-0.5,1.3-0.6c0.5-0.1,1-0.3,1.5-0.3c0.5-0.1,1-0.2,1.5-0.2
	c0.5-0.1,0.9-0.1,1.3-0.2c0.4-0.1,0.7-0.2,0.9-0.4c0.2-0.2,0.3-0.5,0.3-0.8c0-0.4-0.1-0.8-0.2-1c-0.2-0.3-0.4-0.5-0.6-0.6
	c-0.2-0.1-0.5-0.2-0.8-0.3c-0.3,0-0.6-0.1-0.9-0.1c-0.8,0-1.5,0.2-2.1,0.5c-0.5,0.3-0.8,0.9-0.9,1.8h-1.9c0-0.7,0.2-1.4,0.5-1.9
	c0.3-0.5,0.6-0.9,1.1-1.2c0.5-0.3,1-0.5,1.6-0.7c0.6-0.1,1.2-0.2,1.9-0.2c0.5,0,1.1,0,1.6,0.1c0.5,0.1,1,0.2,1.4,0.5
	c0.4,0.2,0.8,0.6,1,1c0.3,0.4,0.4,1,0.4,1.7V14c0,0.5,0,0.8,0.1,1c0.1,0.2,0.2,0.3,0.5,0.3c0.2,0,0.4,0,0.6-0.1v1.5
	C429.8,16.9,429.3,17,428.7,17z M426,11c-0.4,0.1-0.8,0.2-1.2,0.2c-0.4,0.1-0.9,0.1-1.3,0.2c-0.4,0.1-0.8,0.2-1.2,0.3
	c-0.3,0.2-0.6,0.4-0.9,0.7c-0.2,0.3-0.3,0.7-0.3,1.2c0,0.3,0.1,0.6,0.2,0.8c0.1,0.2,0.3,0.4,0.5,0.5c0.2,0.1,0.4,0.2,0.7,0.3
	c0.3,0.1,0.6,0.1,0.9,0.1c0.6,0,1.2-0.1,1.6-0.3c0.5-0.2,0.8-0.4,1.1-0.7c0.3-0.3,0.5-0.6,0.6-0.9c0.1-0.3,0.2-0.6,0.2-0.9v-2
	C426.7,10.8,426.4,11,426,11z"/>
<path class="st0" d="M433.8,4.9v1.9h0.1c0.8-1.4,2.1-2.1,3.8-2.1c0.8,0,1.4,0.1,1.9,0.3c0.5,0.2,0.9,0.5,1.3,0.9
	c0.3,0.4,0.5,0.8,0.7,1.4c0.1,0.5,0.2,1.1,0.2,1.7v7.8h-1.9v-8c0-0.7-0.2-1.3-0.6-1.7c-0.4-0.4-1-0.6-1.8-0.6
	c-0.6,0-1.1,0.1-1.5,0.3c-0.4,0.2-0.8,0.4-1.1,0.8s-0.5,0.7-0.7,1.2c-0.1,0.4-0.2,0.9-0.2,1.5v6.7h-1.9V4.9H433.8z"/>
<path class="st0" d="M446.1,14.1c0.2,0.3,0.4,0.5,0.7,0.7c0.3,0.2,0.6,0.3,1,0.4c0.4,0.1,0.8,0.1,1.2,0.1c0.3,0,0.6,0,1-0.1
	c0.3,0,0.6-0.1,0.9-0.3c0.3-0.1,0.5-0.3,0.7-0.5c0.2-0.2,0.3-0.5,0.3-0.9c0-0.5-0.2-0.9-0.6-1.1c-0.4-0.3-0.9-0.5-1.4-0.6
	c-0.6-0.2-1.2-0.3-1.9-0.4c-0.7-0.1-1.3-0.3-1.9-0.6c-0.6-0.2-1-0.6-1.4-1c-0.4-0.4-0.6-1-0.6-1.8c0-0.6,0.1-1.1,0.4-1.5
	c0.3-0.4,0.6-0.8,1-1c0.4-0.3,0.9-0.5,1.4-0.6c0.5-0.1,1-0.2,1.6-0.2c0.7,0,1.3,0.1,1.9,0.2c0.6,0.1,1.1,0.3,1.5,0.6
	c0.4,0.3,0.8,0.7,1,1.1c0.3,0.5,0.4,1.1,0.5,1.8h-1.9c0-0.4-0.1-0.7-0.3-0.9c-0.2-0.2-0.4-0.4-0.6-0.6c-0.3-0.2-0.5-0.3-0.9-0.3
	c-0.3-0.1-0.6-0.1-0.9-0.1c-0.3,0-0.6,0-0.9,0.1c-0.3,0-0.6,0.1-0.8,0.2c-0.2,0.1-0.4,0.3-0.6,0.5c-0.2,0.2-0.2,0.4-0.2,0.7
	c0,0.3,0.1,0.6,0.4,0.8c0.2,0.2,0.5,0.4,0.9,0.5c0.4,0.1,0.8,0.3,1.2,0.4c0.5,0.1,0.9,0.2,1.4,0.3c0.5,0.1,1,0.2,1.4,0.4
	c0.5,0.2,0.9,0.4,1.2,0.6c0.4,0.3,0.6,0.6,0.9,0.9c0.2,0.4,0.3,0.9,0.3,1.4c0,0.7-0.1,1.3-0.4,1.8c-0.3,0.5-0.7,0.9-1.2,1.1
	c-0.5,0.3-1,0.5-1.6,0.6c-0.6,0.1-1.2,0.2-1.8,0.2c-0.7,0-1.3-0.1-1.9-0.2c-0.6-0.1-1.1-0.4-1.6-0.7c-0.5-0.3-0.8-0.7-1.1-1.2
	c-0.3-0.5-0.4-1.1-0.5-1.9h1.9C445.9,13.4,446,13.8,446.1,14.1z"/>
<path class="st0" d="M469.6,0.4l6.4,16.3h-2.4l-1.8-4.9h-6.9l-1.8,4.9h-2.2l6.4-16.3H469.6z M471.1,10l-2.7-7.6h0l-2.8,7.6H471.1z
	"/>
<path class="st0" d="M476.1,6.6V4.9h2V3.1c0-1,0.3-1.7,0.8-2.2c0.6-0.5,1.4-0.7,2.4-0.7c0.2,0,0.4,0,0.6,0c0.2,0,0.4,0.1,0.6,0.1
	v1.7C482.4,2,482.2,2,482,2c-0.2,0-0.4,0-0.5,0c-0.5,0-0.8,0.1-1.1,0.3c-0.3,0.2-0.4,0.5-0.4,1.1v1.6h2.3v1.7H480v10.1h-1.9V6.6
	H476.1z"/>
<path class="st0" d="M482.4,6.6V4.9h2V3.1c0-1,0.3-1.7,0.8-2.2c0.6-0.5,1.4-0.7,2.4-0.7c0.2,0,0.4,0,0.6,0c0.2,0,0.4,0.1,0.6,0.1
	v1.7C488.8,2,488.6,2,488.4,2c-0.2,0-0.4,0-0.5,0c-0.5,0-0.8,0.1-1.1,0.3c-0.3,0.2-0.4,0.5-0.4,1.1v1.6h2.3v1.7h-2.3v10.1h-1.9
	V6.6H482.4z"/>
<path class="st0" d="M499.5,17c-0.5,0-0.9-0.1-1.2-0.4c-0.3-0.3-0.5-0.7-0.5-1.4c-0.5,0.6-1.1,1.1-1.9,1.4
	c-0.7,0.3-1.5,0.4-2.3,0.4c-0.5,0-1-0.1-1.5-0.2c-0.5-0.1-0.9-0.3-1.2-0.6c-0.4-0.3-0.6-0.6-0.8-1c-0.2-0.4-0.3-0.9-0.3-1.5
	c0-0.7,0.1-1.2,0.3-1.6c0.2-0.4,0.5-0.8,0.9-1c0.4-0.3,0.8-0.5,1.3-0.6c0.5-0.1,1-0.3,1.5-0.3c0.5-0.1,1-0.2,1.5-0.2
	c0.5-0.1,0.9-0.1,1.3-0.2c0.4-0.1,0.7-0.2,0.9-0.4c0.2-0.2,0.3-0.5,0.3-0.8c0-0.4-0.1-0.8-0.2-1c-0.2-0.3-0.4-0.5-0.6-0.6
	c-0.3-0.1-0.5-0.2-0.8-0.3c-0.3,0-0.6-0.1-0.9-0.1c-0.8,0-1.5,0.2-2.1,0.5c-0.5,0.3-0.8,0.9-0.9,1.8h-1.9c0-0.7,0.2-1.4,0.5-1.9
	c0.3-0.5,0.6-0.9,1.1-1.2c0.5-0.3,1-0.5,1.6-0.7c0.6-0.1,1.2-0.2,1.9-0.2c0.5,0,1.1,0,1.6,0.1c0.5,0.1,1,0.2,1.4,0.5
	c0.4,0.2,0.8,0.6,1,1c0.3,0.4,0.4,1,0.4,1.7V14c0,0.5,0,0.8,0.1,1c0.1,0.2,0.2,0.3,0.5,0.3c0.2,0,0.4,0,0.6-0.1v1.5
	C500.5,16.9,500,17,499.5,17z M496.7,11c-0.4,0.1-0.8,0.2-1.2,0.2c-0.4,0.1-0.9,0.1-1.3,0.2c-0.4,0.1-0.8,0.2-1.2,0.3
	c-0.3,0.2-0.6,0.4-0.9,0.7c-0.2,0.3-0.3,0.7-0.3,1.2c0,0.3,0.1,0.6,0.2,0.8c0.1,0.2,0.3,0.4,0.5,0.5c0.2,0.1,0.4,0.2,0.7,0.3
	c0.3,0.1,0.6,0.1,0.9,0.1c0.6,0,1.2-0.1,1.6-0.3c0.5-0.2,0.8-0.4,1.1-0.7c0.3-0.3,0.5-0.6,0.6-0.9c0.1-0.3,0.2-0.6,0.2-0.9v-2
	C497.4,10.8,497.1,11,496.7,11z"/>
<path class="st0" d="M504.7,2.8V0.4h-1.9v2.4H504.7z M502.8,4.9v11.8h1.9V4.9H502.8z"/>
<path class="st0" d="M509.5,4.9v2.5h0c0.5-1,1.1-1.7,1.7-2.1c0.7-0.5,1.6-0.7,2.6-0.6v2.1c-0.8,0-1.4,0.1-2,0.3
	c-0.5,0.2-1,0.5-1.3,0.9c-0.3,0.4-0.6,0.9-0.7,1.5c-0.2,0.6-0.2,1.3-0.2,2v5.3h-1.9V4.9H509.5z"/>
<path class="st0" d="M516.8,14.1c0.2,0.3,0.4,0.5,0.7,0.7c0.3,0.2,0.6,0.3,1,0.4c0.4,0.1,0.8,0.1,1.2,0.1c0.3,0,0.6,0,1-0.1
	c0.3,0,0.6-0.1,0.9-0.3c0.3-0.1,0.5-0.3,0.7-0.5c0.2-0.2,0.3-0.5,0.3-0.9c0-0.5-0.2-0.9-0.6-1.1c-0.4-0.3-0.9-0.5-1.4-0.6
	c-0.6-0.2-1.2-0.3-1.9-0.4c-0.7-0.1-1.3-0.3-1.9-0.6c-0.6-0.2-1-0.6-1.4-1c-0.4-0.4-0.6-1-0.6-1.8c0-0.6,0.1-1.1,0.4-1.5
	c0.3-0.4,0.6-0.8,1-1c0.4-0.3,0.9-0.5,1.4-0.6c0.5-0.1,1-0.2,1.6-0.2c0.7,0,1.3,0.1,1.9,0.2c0.6,0.1,1.1,0.3,1.5,0.6
	c0.4,0.3,0.8,0.7,1,1.1c0.3,0.5,0.4,1.1,0.5,1.8h-1.9c0-0.4-0.1-0.7-0.3-0.9c-0.2-0.2-0.4-0.4-0.6-0.6c-0.3-0.2-0.5-0.3-0.9-0.3
	c-0.3-0.1-0.6-0.1-0.9-0.1c-0.3,0-0.6,0-0.9,0.1c-0.3,0-0.6,0.1-0.8,0.2c-0.2,0.1-0.4,0.3-0.6,0.5c-0.2,0.2-0.2,0.4-0.2,0.7
	c0,0.3,0.1,0.6,0.4,0.8c0.2,0.2,0.5,0.4,0.9,0.5c0.4,0.1,0.8,0.3,1.2,0.4c0.5,0.1,0.9,0.2,1.4,0.3c0.5,0.1,1,0.2,1.4,0.4
	c0.5,0.2,0.9,0.4,1.2,0.6c0.4,0.3,0.6,0.6,0.9,0.9c0.2,0.4,0.3,0.9,0.3,1.4c0,0.7-0.1,1.3-0.4,1.8c-0.3,0.5-0.7,0.9-1.2,1.1
	c-0.5,0.3-1,0.5-1.6,0.6c-0.6,0.1-1.2,0.2-1.8,0.2c-0.7,0-1.3-0.1-1.9-0.2c-0.6-0.1-1.1-0.4-1.6-0.7c-0.5-0.3-0.8-0.7-1.1-1.2
	c-0.3-0.5-0.4-1.1-0.5-1.9h1.9C516.6,13.4,516.6,13.8,516.8,14.1z"/>
<path class="st0" d="M377.8,25.6c-0.8-0.6-1.8-0.9-3-0.9c-1,0-1.8,0.2-2.5,0.5c-0.7,0.4-1.3,0.9-1.7,1.5c-0.5,0.6-0.8,1.3-1,2.1
	c-0.2,0.8-0.3,1.6-0.3,2.5c0,0.9,0.1,1.8,0.3,2.6c0.2,0.8,0.5,1.6,1,2.2c0.4,0.6,1,1.1,1.7,1.5c0.7,0.4,1.5,0.5,2.5,0.5
	c0.7,0,1.4-0.1,1.9-0.4c0.6-0.2,1-0.6,1.4-1c0.4-0.4,0.7-0.9,0.9-1.5c0.2-0.6,0.4-1.2,0.4-1.9h2.2c-0.2,2.1-0.9,3.7-2.1,4.8
	c-1.2,1.1-2.9,1.7-4.9,1.7c-1.3,0-2.4-0.2-3.3-0.7c-0.9-0.4-1.7-1-2.4-1.8c-0.6-0.8-1.1-1.7-1.4-2.7c-0.3-1-0.5-2.1-0.5-3.3
	c0-1.2,0.2-2.3,0.5-3.3c0.3-1,0.8-2,1.5-2.7c0.6-0.8,1.5-1.4,2.4-1.8c1-0.4,2.1-0.7,3.3-0.7c0.9,0,1.7,0.1,2.4,0.3
	c0.8,0.2,1.4,0.6,2,1c0.6,0.4,1.1,1,1.5,1.7c0.4,0.7,0.7,1.4,0.8,2.3h-2.2C379.1,27,378.6,26.2,377.8,25.6z"/>
<path class="st0" d="M393.2,39.9c-0.5,0-0.9-0.1-1.2-0.4c-0.3-0.3-0.4-0.7-0.4-1.4c-0.5,0.6-1.1,1.1-1.9,1.4
	c-0.7,0.3-1.5,0.4-2.3,0.4c-0.5,0-1-0.1-1.5-0.2c-0.5-0.1-0.9-0.3-1.2-0.6c-0.4-0.3-0.6-0.6-0.8-1c-0.2-0.4-0.3-0.9-0.3-1.5
	c0-0.7,0.1-1.2,0.3-1.6c0.2-0.4,0.5-0.8,0.9-1c0.4-0.3,0.8-0.5,1.3-0.6c0.5-0.1,1-0.3,1.5-0.3c0.5-0.1,1-0.2,1.5-0.2
	c0.5-0.1,0.9-0.1,1.3-0.2c0.4-0.1,0.7-0.2,0.9-0.4c0.2-0.2,0.3-0.5,0.3-0.8c0-0.4-0.1-0.8-0.2-1c-0.2-0.3-0.4-0.5-0.6-0.6
	c-0.3-0.1-0.5-0.2-0.8-0.3c-0.3,0-0.6-0.1-0.9-0.1c-0.8,0-1.5,0.2-2.1,0.5c-0.5,0.3-0.8,0.9-0.9,1.8h-1.9c0-0.7,0.2-1.4,0.5-1.9
	c0.3-0.5,0.6-0.9,1.1-1.2c0.5-0.3,1-0.5,1.6-0.7c0.6-0.1,1.2-0.2,1.9-0.2c0.5,0,1.1,0,1.6,0.1c0.5,0.1,1,0.2,1.4,0.5
	c0.4,0.2,0.8,0.6,1,1c0.3,0.4,0.4,1,0.4,1.7v6.1c0,0.5,0,0.8,0.1,1c0.1,0.2,0.2,0.3,0.5,0.3c0.2,0,0.4,0,0.6-0.1v1.5
	C394.2,39.8,393.8,39.9,393.2,39.9z M390.4,33.9c-0.4,0.1-0.8,0.2-1.2,0.2c-0.4,0.1-0.9,0.1-1.3,0.2c-0.4,0.1-0.8,0.2-1.2,0.3
	c-0.3,0.2-0.6,0.4-0.9,0.7c-0.2,0.3-0.3,0.7-0.3,1.2c0,0.3,0.1,0.6,0.2,0.8c0.1,0.2,0.3,0.4,0.5,0.5c0.2,0.1,0.4,0.2,0.7,0.3
	c0.3,0.1,0.6,0.1,0.9,0.1c0.6,0,1.2-0.1,1.6-0.3c0.5-0.2,0.8-0.4,1.1-0.7c0.3-0.3,0.5-0.6,0.6-0.9c0.1-0.3,0.2-0.6,0.2-0.9v-2
	C391.1,33.7,390.8,33.8,390.4,33.9z"/>
<path class="st0" d="M398.2,27.8v1.9h0.1c0.8-1.4,2.1-2.1,3.8-2.1c0.8,0,1.4,0.1,1.9,0.3c0.5,0.2,0.9,0.5,1.3,0.9
	c0.3,0.4,0.5,0.8,0.7,1.4c0.1,0.5,0.2,1.1,0.2,1.7v7.8h-1.9v-8c0-0.7-0.2-1.3-0.6-1.7c-0.4-0.4-1-0.6-1.8-0.6
	c-0.6,0-1.1,0.1-1.6,0.3c-0.4,0.2-0.8,0.4-1.1,0.8c-0.3,0.3-0.5,0.7-0.7,1.2c-0.1,0.4-0.2,0.9-0.2,1.5v6.7h-1.9V27.8H398.2z"/>
<path class="st0" d="M418.2,39.9c-0.5,0-0.9-0.1-1.2-0.4c-0.3-0.3-0.5-0.7-0.5-1.4c-0.5,0.6-1.1,1.1-1.9,1.4
	c-0.7,0.3-1.5,0.4-2.3,0.4c-0.5,0-1-0.1-1.5-0.2c-0.5-0.1-0.9-0.3-1.2-0.6c-0.4-0.3-0.6-0.6-0.8-1c-0.2-0.4-0.3-0.9-0.3-1.5
	c0-0.7,0.1-1.2,0.3-1.6c0.2-0.4,0.5-0.8,0.9-1c0.4-0.3,0.8-0.5,1.3-0.6c0.5-0.1,1-0.3,1.5-0.3c0.5-0.1,1-0.2,1.5-0.2
	c0.5-0.1,0.9-0.1,1.3-0.2c0.4-0.1,0.7-0.2,0.9-0.4c0.2-0.2,0.3-0.5,0.3-0.8c0-0.4-0.1-0.8-0.2-1c-0.2-0.3-0.4-0.5-0.6-0.6
	c-0.3-0.1-0.5-0.2-0.8-0.3c-0.3,0-0.6-0.1-0.9-0.1c-0.8,0-1.5,0.2-2.1,0.5c-0.5,0.3-0.8,0.9-0.9,1.8h-1.9c0-0.7,0.2-1.4,0.5-1.9
	c0.3-0.5,0.6-0.9,1.1-1.2c0.5-0.3,1-0.5,1.6-0.7c0.6-0.1,1.2-0.2,1.9-0.2c0.5,0,1.1,0,1.6,0.1c0.5,0.1,1,0.2,1.4,0.5
	c0.4,0.2,0.8,0.6,1,1c0.3,0.4,0.4,1,0.4,1.7v6.1c0,0.5,0,0.8,0.1,1c0.1,0.2,0.2,0.3,0.5,0.3c0.2,0,0.4,0,0.6-0.1v1.5
	C419.2,39.8,418.8,39.9,418.2,39.9z M415.4,33.9c-0.4,0.1-0.8,0.2-1.2,0.2c-0.4,0.1-0.9,0.1-1.3,0.2c-0.4,0.1-0.8,0.2-1.2,0.3
	c-0.3,0.2-0.6,0.4-0.9,0.7c-0.2,0.3-0.3,0.7-0.3,1.2c0,0.3,0.1,0.6,0.2,0.8c0.1,0.2,0.3,0.4,0.5,0.5c0.2,0.1,0.4,0.2,0.7,0.3
	c0.3,0.1,0.6,0.1,0.9,0.1c0.6,0,1.2-0.1,1.6-0.3c0.5-0.2,0.8-0.4,1.1-0.7c0.3-0.3,0.5-0.6,0.6-0.9c0.1-0.3,0.2-0.6,0.2-0.9v-2
	C416.1,33.7,415.8,33.8,415.4,33.9z"/>
<path class="st0" d="M430,39.6l0-1.6h-0.1c-0.3,0.7-0.8,1.1-1.5,1.4c-0.7,0.3-1.4,0.4-2.3,0.4c-0.9,0-1.7-0.2-2.4-0.5
	c-0.7-0.3-1.2-0.8-1.7-1.4c-0.5-0.6-0.8-1.2-1-2c-0.2-0.7-0.3-1.5-0.3-2.4c0-0.8,0.1-1.6,0.3-2.4c0.2-0.7,0.6-1.4,1-2
	c0.5-0.6,1-1,1.7-1.3c0.7-0.3,1.5-0.5,2.4-0.5c0.3,0,0.6,0,1,0.1c0.3,0.1,0.7,0.2,1,0.3c0.3,0.1,0.7,0.3,1,0.6
	c0.3,0.2,0.6,0.5,0.8,0.9h0.1v-6.1h1.9v16.3H430z M423,35.4c0.1,0.5,0.4,1,0.7,1.4c0.3,0.4,0.7,0.7,1.1,1c0.5,0.2,1,0.4,1.6,0.4
	c0.7,0,1.2-0.1,1.7-0.4c0.5-0.3,0.8-0.6,1.1-1c0.3-0.4,0.5-0.9,0.6-1.4c0.1-0.5,0.2-1.1,0.2-1.6c0-0.6-0.1-1.1-0.2-1.7
	c-0.1-0.5-0.4-1-0.7-1.4c-0.3-0.4-0.7-0.7-1.2-1c-0.5-0.2-1-0.4-1.7-0.4c-0.7,0-1.2,0.1-1.7,0.4c-0.5,0.3-0.8,0.6-1.1,1
	c-0.3,0.4-0.5,0.9-0.6,1.5c-0.1,0.5-0.2,1.1-0.2,1.7C422.8,34.3,422.9,34.9,423,35.4z"/>
<path class="st0" d="M444,39.9c-0.5,0-0.9-0.1-1.2-0.4c-0.3-0.3-0.5-0.7-0.5-1.4c-0.5,0.6-1.1,1.1-1.9,1.4
	c-0.7,0.3-1.5,0.4-2.3,0.4c-0.5,0-1-0.1-1.5-0.2c-0.5-0.1-0.9-0.3-1.2-0.6c-0.4-0.3-0.6-0.6-0.8-1c-0.2-0.4-0.3-0.9-0.3-1.5
	c0-0.7,0.1-1.2,0.3-1.6c0.2-0.4,0.5-0.8,0.9-1c0.4-0.3,0.8-0.5,1.3-0.6c0.5-0.1,1-0.3,1.5-0.3c0.5-0.1,1-0.2,1.5-0.2
	c0.5-0.1,0.9-0.1,1.3-0.2c0.4-0.1,0.7-0.2,0.9-0.4c0.2-0.2,0.3-0.5,0.3-0.8c0-0.4-0.1-0.8-0.2-1c-0.2-0.3-0.4-0.5-0.6-0.6
	c-0.2-0.1-0.5-0.2-0.8-0.3c-0.3,0-0.6-0.1-0.9-0.1c-0.8,0-1.5,0.2-2.1,0.5c-0.5,0.3-0.8,0.9-0.9,1.8h-1.9c0-0.7,0.2-1.4,0.5-1.9
	c0.3-0.5,0.6-0.9,1.1-1.2c0.5-0.3,1-0.5,1.6-0.7c0.6-0.1,1.2-0.2,1.9-0.2c0.5,0,1.1,0,1.6,0.1c0.5,0.1,1,0.2,1.4,0.5
	c0.4,0.2,0.8,0.6,1,1c0.3,0.4,0.4,1,0.4,1.7v6.1c0,0.5,0,0.8,0.1,1c0.1,0.2,0.2,0.3,0.5,0.3c0.2,0,0.4,0,0.6-0.1v1.5
	C445.1,39.8,444.6,39.9,444,39.9z M441.3,33.9c-0.4,0.1-0.8,0.2-1.2,0.2c-0.4,0.1-0.9,0.1-1.3,0.2c-0.4,0.1-0.8,0.2-1.2,0.3
	c-0.3,0.2-0.6,0.4-0.9,0.7c-0.2,0.3-0.3,0.7-0.3,1.2c0,0.3,0.1,0.6,0.2,0.8c0.1,0.2,0.3,0.4,0.5,0.5c0.2,0.1,0.4,0.2,0.7,0.3
	c0.3,0.1,0.6,0.1,0.9,0.1c0.6,0,1.2-0.1,1.6-0.3c0.5-0.2,0.8-0.4,1.1-0.7c0.3-0.3,0.5-0.6,0.6-0.9c0.1-0.3,0.2-0.6,0.2-0.9v-2
	C442,33.7,441.7,33.8,441.3,33.9z"/>
<path class="st0" d="M123.3,0.4l6.4,16.3h-2.4l-1.8-4.9h-6.9l-1.8,4.9h-2.2l6.4-16.3H123.3z M124.8,10l-2.7-7.6h0l-2.8,7.6H124.8z
	"/>
<path class="st0" d="M132.7,4.9v1.9h0.1c0.8-1.4,2.1-2.1,3.8-2.1c0.8,0,1.4,0.1,1.9,0.3s0.9,0.5,1.3,0.9c0.3,0.4,0.5,0.8,0.7,1.4
	c0.1,0.5,0.2,1.1,0.2,1.7v7.8h-1.9v-8c0-0.7-0.2-1.3-0.6-1.7c-0.4-0.4-1-0.6-1.8-0.6c-0.6,0-1.1,0.1-1.5,0.3s-0.8,0.4-1.1,0.8
	s-0.5,0.7-0.7,1.2c-0.1,0.4-0.2,0.9-0.2,1.5v6.7h-1.9V4.9H132.7z"/>
<path class="st0" d="M150.7,7c-0.5-0.4-1.1-0.6-2-0.6c-0.7,0-1.3,0.1-1.8,0.4c-0.5,0.3-0.9,0.6-1.1,1c-0.3,0.4-0.5,0.9-0.6,1.5
	c-0.1,0.6-0.2,1.1-0.2,1.7c0,0.5,0.1,1.1,0.2,1.6c0.1,0.5,0.3,1,0.6,1.4c0.3,0.4,0.6,0.7,1.1,1c0.4,0.2,1,0.4,1.6,0.4
	c1,0,1.7-0.3,2.3-0.8c0.5-0.5,0.9-1.2,1-2.1h2c-0.2,1.5-0.8,2.6-1.6,3.4c-0.9,0.8-2.1,1.2-3.6,1.2c-0.9,0-1.7-0.1-2.4-0.4
	c-0.7-0.3-1.3-0.7-1.7-1.2c-0.5-0.5-0.8-1.2-1.1-1.9c-0.2-0.7-0.4-1.6-0.4-2.4c0-0.9,0.1-1.7,0.3-2.5c0.2-0.8,0.6-1.4,1-2
	c0.5-0.6,1-1,1.7-1.4c0.7-0.3,1.5-0.5,2.4-0.5c0.7,0,1.3,0.1,1.9,0.2c0.6,0.2,1.1,0.4,1.6,0.7c0.4,0.3,0.8,0.8,1.1,1.3
	c0.3,0.5,0.5,1.1,0.5,1.8h-2C151.5,8,151.2,7.4,150.7,7z"/>
<path class="st0" d="M156,2.8V0.4h1.9v2.4H156z M158,4.9v11.8H156V4.9H158z"/>
<path class="st0" d="M169.4,16c-0.9,0.7-2,1-3.3,1c-0.9,0-1.8-0.2-2.5-0.5c-0.7-0.3-1.3-0.7-1.7-1.3c-0.5-0.6-0.8-1.2-1.1-2
	c-0.2-0.8-0.4-1.6-0.4-2.5c0-0.9,0.1-1.7,0.4-2.5c0.3-0.7,0.7-1.4,1.2-1.9c0.5-0.5,1.1-1,1.8-1.3c0.7-0.3,1.4-0.5,2.2-0.5
	c1.1,0,1.9,0.2,2.6,0.7c0.7,0.4,1.2,1,1.7,1.7c0.4,0.7,0.7,1.4,0.9,2.2c0.2,0.8,0.2,1.5,0.2,2.3h-8.8c0,0.5,0,1,0.2,1.5
	c0.1,0.5,0.4,0.9,0.7,1.2s0.7,0.6,1.2,0.9c0.5,0.2,1,0.3,1.7,0.3c0.8,0,1.5-0.2,2-0.6c0.5-0.4,0.9-1,1-1.7h1.9
	C170.8,14.3,170.2,15.3,169.4,16z M168.9,8.4c-0.2-0.4-0.4-0.8-0.7-1.1c-0.3-0.3-0.6-0.5-1.1-0.7c-0.4-0.2-0.9-0.3-1.3-0.3
	c-0.5,0-1,0.1-1.4,0.3c-0.4,0.2-0.8,0.4-1,0.7c-0.3,0.3-0.5,0.7-0.7,1.1c-0.2,0.4-0.3,0.8-0.3,1.3h6.8
	C169.2,9.2,169.1,8.8,168.9,8.4z"/>
<path class="st0" d="M175.1,4.9v1.9h0.1c0.8-1.4,2.1-2.1,3.8-2.1c0.8,0,1.4,0.1,1.9,0.3c0.5,0.2,0.9,0.5,1.3,0.9
	c0.3,0.4,0.5,0.8,0.7,1.4c0.1,0.5,0.2,1.1,0.2,1.7v7.8h-1.9v-8c0-0.7-0.2-1.3-0.6-1.7c-0.4-0.4-1-0.6-1.8-0.6
	c-0.6,0-1.1,0.1-1.5,0.3c-0.4,0.2-0.8,0.4-1.1,0.8c-0.3,0.3-0.5,0.7-0.7,1.2c-0.1,0.4-0.2,0.9-0.2,1.5v6.7h-1.9V4.9H175.1z"/>
<path class="st0" d="M187.5,14.1c0.2,0.3,0.4,0.5,0.7,0.7c0.3,0.2,0.6,0.3,1,0.4c0.4,0.1,0.8,0.1,1.2,0.1c0.3,0,0.6,0,1-0.1
	c0.3,0,0.6-0.1,0.9-0.3c0.3-0.1,0.5-0.3,0.7-0.5c0.2-0.2,0.3-0.5,0.3-0.9c0-0.5-0.2-0.9-0.6-1.1c-0.4-0.3-0.9-0.5-1.4-0.6
	c-0.6-0.2-1.2-0.3-1.9-0.4c-0.7-0.1-1.3-0.3-1.9-0.6c-0.6-0.2-1-0.6-1.4-1c-0.4-0.4-0.6-1-0.6-1.8c0-0.6,0.1-1.1,0.4-1.5
	c0.3-0.4,0.6-0.8,1-1c0.4-0.3,0.9-0.5,1.4-0.6c0.5-0.1,1-0.2,1.6-0.2c0.7,0,1.3,0.1,1.9,0.2c0.6,0.1,1.1,0.3,1.5,0.6
	c0.4,0.3,0.8,0.7,1,1.1c0.3,0.5,0.4,1.1,0.5,1.8h-1.9c0-0.4-0.1-0.7-0.3-0.9c-0.2-0.2-0.4-0.4-0.6-0.6c-0.3-0.2-0.5-0.3-0.9-0.3
	c-0.3-0.1-0.6-0.1-1-0.1c-0.3,0-0.6,0-0.9,0.1c-0.3,0-0.6,0.1-0.8,0.2c-0.2,0.1-0.4,0.3-0.6,0.5c-0.2,0.2-0.2,0.4-0.2,0.7
	c0,0.3,0.1,0.6,0.4,0.8c0.2,0.2,0.5,0.4,0.9,0.5c0.4,0.1,0.8,0.3,1.2,0.4c0.5,0.1,0.9,0.2,1.4,0.3c0.5,0.1,1,0.2,1.4,0.4
	c0.5,0.2,0.9,0.4,1.2,0.6c0.4,0.3,0.6,0.6,0.9,0.9c0.2,0.4,0.3,0.9,0.3,1.4c0,0.7-0.1,1.3-0.4,1.8c-0.3,0.5-0.7,0.9-1.2,1.1
	c-0.5,0.3-1,0.5-1.6,0.6c-0.6,0.1-1.2,0.2-1.8,0.2c-0.7,0-1.3-0.1-1.9-0.2c-0.6-0.1-1.1-0.4-1.6-0.7c-0.5-0.3-0.8-0.7-1.1-1.2
	c-0.3-0.5-0.4-1.1-0.5-1.9h1.9C187.2,13.4,187.3,13.8,187.5,14.1z"/>
<path class="st0" d="M214,2.7c-0.8-0.6-1.8-0.9-3-0.9c-1,0-1.8,0.2-2.5,0.5c-0.7,0.4-1.3,0.9-1.7,1.5c-0.5,0.6-0.8,1.3-1,2.1
	c-0.2,0.8-0.3,1.6-0.3,2.5c0,0.9,0.1,1.8,0.3,2.6c0.2,0.8,0.5,1.6,1,2.2c0.5,0.6,1,1.1,1.7,1.5c0.7,0.4,1.5,0.5,2.5,0.5
	c0.7,0,1.4-0.1,1.9-0.4c0.6-0.2,1-0.6,1.4-1c0.4-0.4,0.7-0.9,0.9-1.5c0.2-0.6,0.4-1.2,0.4-1.9h2.2c-0.2,2.1-0.9,3.7-2.1,4.8
	c-1.2,1.1-2.9,1.7-4.9,1.7c-1.3,0-2.4-0.2-3.3-0.7c-0.9-0.4-1.7-1-2.4-1.8c-0.6-0.8-1.1-1.7-1.4-2.7c-0.3-1-0.5-2.1-0.5-3.3
	c0-1.2,0.2-2.3,0.5-3.3c0.3-1,0.8-2,1.5-2.7c0.6-0.8,1.5-1.4,2.4-1.8c1-0.4,2.1-0.7,3.3-0.7c0.9,0,1.7,0.1,2.4,0.3
	c0.8,0.2,1.4,0.6,2,1c0.6,0.4,1.1,1,1.5,1.7c0.4,0.7,0.7,1.4,0.8,2.3h-2.2C215.3,4.2,214.8,3.3,214,2.7z"/>
<path class="st0" d="M220,8.4c0.2-0.8,0.6-1.4,1.1-2c0.5-0.6,1.1-1,1.8-1.3c0.7-0.3,1.5-0.5,2.5-0.5c0.9,0,1.8,0.2,2.5,0.5
	c0.7,0.3,1.3,0.8,1.8,1.3c0.5,0.6,0.9,1.2,1.1,2c0.2,0.8,0.4,1.6,0.4,2.4c0,0.9-0.1,1.7-0.4,2.4c-0.2,0.7-0.6,1.4-1.1,2
	c-0.5,0.6-1.1,1-1.8,1.3c-0.7,0.3-1.5,0.5-2.5,0.5c-0.9,0-1.7-0.2-2.5-0.5c-0.7-0.3-1.3-0.7-1.8-1.3c-0.5-0.6-0.9-1.2-1.1-2
	c-0.2-0.7-0.4-1.6-0.4-2.4C219.6,10,219.8,9.2,220,8.4z M222,12.8c0.2,0.6,0.5,1,0.8,1.4c0.3,0.4,0.7,0.7,1.2,0.9
	c0.5,0.2,0.9,0.3,1.4,0.3c0.5,0,1-0.1,1.4-0.3c0.5-0.2,0.8-0.5,1.2-0.9c0.3-0.4,0.6-0.8,0.8-1.4c0.2-0.6,0.3-1.2,0.3-1.9
	c0-0.7-0.1-1.4-0.3-1.9c-0.2-0.6-0.5-1-0.8-1.4c-0.3-0.4-0.7-0.7-1.2-0.9c-0.4-0.2-0.9-0.3-1.4-0.3c-0.5,0-1,0.1-1.4,0.3
	c-0.4,0.2-0.8,0.5-1.2,0.9c-0.3,0.4-0.6,0.8-0.8,1.4c-0.2,0.6-0.3,1.2-0.3,1.9C221.7,11.6,221.8,12.2,222,12.8z"/>
<path class="st0" d="M235.2,4.9v1.7h0.1c0.9-1.3,2.1-2,3.8-2c0.7,0,1.4,0.2,2,0.5c0.6,0.3,1,0.8,1.3,1.6c0.4-0.6,0.9-1.1,1.6-1.5
	c0.6-0.4,1.4-0.5,2.1-0.5c0.6,0,1.1,0.1,1.6,0.2c0.5,0.1,0.9,0.3,1.2,0.6c0.3,0.3,0.6,0.6,0.8,1.1c0.2,0.4,0.3,1,0.3,1.6v8.7H248
	V9c0-0.4,0-0.7-0.1-1c-0.1-0.3-0.2-0.6-0.3-0.8c-0.2-0.2-0.4-0.4-0.7-0.6c-0.3-0.1-0.7-0.2-1.2-0.2c-1,0-1.7,0.3-2.3,0.8
	c-0.5,0.5-0.8,1.3-0.8,2.2v7.3h-1.9V9c0-0.4,0-0.7-0.1-1c-0.1-0.3-0.2-0.6-0.4-0.8c-0.2-0.2-0.4-0.4-0.7-0.5
	c-0.3-0.1-0.6-0.2-1.1-0.2c-0.6,0-1,0.1-1.4,0.3c-0.4,0.2-0.7,0.5-1,0.8c-0.3,0.3-0.4,0.6-0.5,1c-0.1,0.3-0.2,0.6-0.2,0.9v7.3
	h-1.9V4.9H235.2z"/>
<path class="st0" d="M254.9,0.4v6.1h0.1c0.3-0.7,0.8-1.1,1.5-1.4c0.7-0.3,1.4-0.4,2.3-0.4c0.9,0,1.7,0.2,2.4,0.5
	c0.7,0.3,1.2,0.8,1.7,1.4c0.4,0.6,0.8,1.2,1,2c0.2,0.7,0.3,1.5,0.3,2.4c0,0.8-0.1,1.6-0.3,2.4c-0.2,0.7-0.6,1.4-1,2
	c-0.4,0.6-1,1-1.7,1.3c-0.7,0.3-1.5,0.5-2.4,0.5c-0.3,0-0.6,0-1-0.1c-0.4-0.1-0.7-0.2-1.1-0.3c-0.3-0.1-0.7-0.3-1-0.6
	c-0.3-0.2-0.6-0.5-0.8-0.9h-0.1v1.6H253V0.4H254.9z M261.9,9.1c-0.1-0.5-0.4-1-0.7-1.4c-0.3-0.4-0.7-0.7-1.1-1
	c-0.5-0.2-1-0.4-1.6-0.4c-0.7,0-1.2,0.1-1.7,0.4c-0.5,0.3-0.8,0.6-1.1,1c-0.3,0.4-0.5,0.9-0.6,1.4c-0.1,0.5-0.2,1.1-0.2,1.6
	c0,0.6,0.1,1.1,0.2,1.7c0.1,0.5,0.4,1,0.6,1.4c0.3,0.4,0.7,0.7,1.1,1c0.5,0.2,1,0.4,1.7,0.4s1.2-0.1,1.7-0.4
	c0.4-0.3,0.8-0.6,1.1-1c0.3-0.4,0.5-0.9,0.6-1.5c0.1-0.5,0.2-1.1,0.2-1.7C262.1,10.2,262,9.6,261.9,9.1z"/>
<path class="st0" d="M275.5,17c-0.5,0-0.9-0.1-1.2-0.4c-0.3-0.3-0.5-0.7-0.5-1.4c-0.5,0.6-1.1,1.1-1.9,1.4
	c-0.7,0.3-1.5,0.4-2.3,0.4c-0.5,0-1-0.1-1.5-0.2c-0.5-0.1-0.9-0.3-1.2-0.6c-0.4-0.3-0.6-0.6-0.8-1c-0.2-0.4-0.3-0.9-0.3-1.5
	c0-0.7,0.1-1.2,0.3-1.6c0.2-0.4,0.5-0.8,0.9-1c0.4-0.3,0.8-0.5,1.3-0.6c0.5-0.1,1-0.3,1.5-0.3c0.5-0.1,1-0.2,1.5-0.2
	c0.5-0.1,0.9-0.1,1.3-0.2c0.4-0.1,0.7-0.2,0.9-0.4c0.2-0.2,0.3-0.5,0.3-0.8c0-0.4-0.1-0.8-0.2-1c-0.2-0.3-0.4-0.5-0.6-0.6
	c-0.3-0.1-0.5-0.2-0.8-0.3c-0.3,0-0.6-0.1-0.9-0.1c-0.8,0-1.5,0.2-2.1,0.5c-0.5,0.3-0.8,0.9-0.9,1.8h-1.9c0-0.7,0.2-1.4,0.5-1.9
	c0.3-0.5,0.6-0.9,1.1-1.2c0.5-0.3,1-0.5,1.6-0.7c0.6-0.1,1.2-0.2,1.9-0.2c0.5,0,1.1,0,1.6,0.1c0.5,0.1,1,0.2,1.4,0.5
	c0.4,0.2,0.8,0.6,1,1c0.3,0.4,0.4,1,0.4,1.7V14c0,0.5,0,0.8,0.1,1c0.1,0.2,0.2,0.3,0.5,0.3c0.2,0,0.4,0,0.6-0.1v1.5
	C276.6,16.9,276.1,17,275.5,17z M272.8,11c-0.4,0.1-0.8,0.2-1.2,0.2c-0.4,0.1-0.9,0.1-1.3,0.2c-0.4,0.1-0.8,0.2-1.2,0.3
	c-0.3,0.2-0.6,0.4-0.9,0.7c-0.2,0.3-0.3,0.7-0.3,1.2c0,0.3,0.1,0.6,0.2,0.8c0.1,0.2,0.3,0.4,0.5,0.5c0.2,0.1,0.4,0.2,0.7,0.3
	c0.3,0.1,0.6,0.1,0.9,0.1c0.6,0,1.2-0.1,1.6-0.3c0.5-0.2,0.8-0.4,1.1-0.7c0.3-0.3,0.5-0.6,0.6-0.9c0.1-0.3,0.2-0.6,0.2-0.9v-2
	C273.5,10.8,273.2,11,272.8,11z"/>
<path class="st0" d="M283.8,4.9v1.7h-2.4V14c0,0.2,0,0.4,0.1,0.5c0,0.1,0.1,0.2,0.2,0.3c0.1,0.1,0.3,0.1,0.4,0.1
	c0.2,0,0.4,0,0.7,0h0.9v1.7h-1.5c-0.5,0-0.9,0-1.3-0.1c-0.4-0.1-0.6-0.2-0.9-0.4c-0.2-0.2-0.4-0.4-0.5-0.8
	c-0.1-0.3-0.2-0.8-0.2-1.3l0-7.5h-2V4.9h2V1.4h1.9v3.5H283.8z"/>
<path class="st0" d="M291,4.9v1.7h-2.4V14c0,0.2,0,0.4,0.1,0.5c0,0.1,0.1,0.2,0.2,0.3c0.1,0.1,0.3,0.1,0.4,0.1c0.2,0,0.4,0,0.7,0
	h0.9v1.7h-1.5c-0.5,0-0.9,0-1.3-0.1c-0.4-0.1-0.6-0.2-0.9-0.4c-0.2-0.2-0.4-0.4-0.5-0.8c-0.1-0.3-0.2-0.8-0.2-1.3l0-7.5h-2V4.9h2
	V1.4h1.9v3.5H291z"/>
<path class="st0" d="M302.2,17c-0.5,0-0.9-0.1-1.2-0.4c-0.3-0.3-0.5-0.7-0.5-1.4c-0.5,0.6-1.1,1.1-1.9,1.4
	c-0.7,0.3-1.5,0.4-2.3,0.4c-0.5,0-1-0.1-1.5-0.2c-0.5-0.1-0.9-0.3-1.2-0.6c-0.4-0.3-0.6-0.6-0.8-1c-0.2-0.4-0.3-0.9-0.3-1.5
	c0-0.7,0.1-1.2,0.3-1.6c0.2-0.4,0.5-0.8,0.9-1c0.4-0.3,0.8-0.5,1.3-0.6c0.5-0.1,1-0.3,1.5-0.3c0.5-0.1,1-0.2,1.5-0.2
	c0.5-0.1,0.9-0.1,1.3-0.2c0.4-0.1,0.7-0.2,0.9-0.4c0.2-0.2,0.3-0.5,0.3-0.8c0-0.4-0.1-0.8-0.2-1c-0.2-0.3-0.4-0.5-0.6-0.6
	c-0.3-0.1-0.5-0.2-0.8-0.3c-0.3,0-0.6-0.1-0.9-0.1c-0.8,0-1.5,0.2-2.1,0.5c-0.5,0.3-0.8,0.9-0.9,1.8h-1.9c0-0.7,0.2-1.4,0.5-1.9
	c0.3-0.5,0.6-0.9,1.1-1.2c0.5-0.3,1-0.5,1.6-0.7c0.6-0.1,1.2-0.2,1.9-0.2c0.5,0,1.1,0,1.6,0.1c0.5,0.1,1,0.2,1.4,0.5
	c0.4,0.2,0.8,0.6,1,1c0.3,0.4,0.4,1,0.4,1.7V14c0,0.5,0,0.8,0.1,1c0.1,0.2,0.2,0.3,0.5,0.3c0.2,0,0.4,0,0.6-0.1v1.5
	C303.3,16.9,302.8,17,302.2,17z M299.5,11c-0.4,0.1-0.8,0.2-1.2,0.2c-0.4,0.1-0.9,0.1-1.3,0.2c-0.4,0.1-0.8,0.2-1.2,0.3
	c-0.3,0.2-0.6,0.4-0.9,0.7c-0.2,0.3-0.3,0.7-0.3,1.2c0,0.3,0.1,0.6,0.2,0.8c0.1,0.2,0.3,0.4,0.5,0.5c0.2,0.1,0.4,0.2,0.7,0.3
	c0.3,0.1,0.6,0.1,0.9,0.1c0.6,0,1.2-0.1,1.6-0.3c0.5-0.2,0.8-0.4,1.1-0.7c0.3-0.3,0.5-0.6,0.6-0.9c0.1-0.3,0.2-0.6,0.2-0.9v-2
	C300.2,10.8,299.9,11,299.5,11z"/>
<path class="st0" d="M307.2,4.9v1.9h0.1c0.8-1.4,2.1-2.1,3.8-2.1c0.8,0,1.4,0.1,1.9,0.3c0.5,0.2,0.9,0.5,1.3,0.9
	c0.3,0.4,0.5,0.8,0.7,1.4c0.1,0.5,0.2,1.1,0.2,1.7v7.8h-1.9v-8c0-0.7-0.2-1.3-0.6-1.7c-0.4-0.4-1-0.6-1.8-0.6
	c-0.6,0-1.1,0.1-1.5,0.3c-0.4,0.2-0.8,0.4-1.1,0.8c-0.3,0.3-0.5,0.7-0.7,1.2c-0.1,0.4-0.2,0.9-0.2,1.5v6.7h-1.9V4.9H307.2z"/>
<path class="st0" d="M323.2,4.9v1.7h-2.4V14c0,0.2,0,0.4,0.1,0.5c0,0.1,0.1,0.2,0.2,0.3c0.1,0.1,0.3,0.1,0.4,0.1
	c0.2,0,0.4,0,0.7,0h0.9v1.7h-1.5c-0.5,0-0.9,0-1.3-0.1c-0.4-0.1-0.6-0.2-0.9-0.4c-0.2-0.2-0.4-0.4-0.5-0.8
	c-0.1-0.3-0.2-0.8-0.2-1.3l0-7.5h-2V4.9h2V1.4h1.9v3.5H323.2z"/>
<path class="st0" d="M326.8,14.1c0.2,0.3,0.4,0.5,0.7,0.7c0.3,0.2,0.6,0.3,1,0.4c0.4,0.1,0.8,0.1,1.2,0.1c0.3,0,0.6,0,1-0.1
	c0.3,0,0.6-0.1,0.9-0.3c0.3-0.1,0.5-0.3,0.7-0.5c0.2-0.2,0.3-0.5,0.3-0.9c0-0.5-0.2-0.9-0.6-1.1c-0.4-0.3-0.9-0.5-1.4-0.6
	c-0.6-0.2-1.2-0.3-1.9-0.4c-0.7-0.1-1.3-0.3-1.9-0.6c-0.6-0.2-1.1-0.6-1.4-1c-0.4-0.4-0.6-1-0.6-1.8c0-0.6,0.1-1.1,0.4-1.5
	c0.3-0.4,0.6-0.8,1-1c0.4-0.3,0.9-0.5,1.4-0.6c0.5-0.1,1-0.2,1.6-0.2c0.7,0,1.3,0.1,1.9,0.2c0.6,0.1,1.1,0.3,1.5,0.6
	c0.4,0.3,0.8,0.7,1,1.1c0.3,0.5,0.4,1.1,0.5,1.8h-1.9c0-0.4-0.1-0.7-0.3-0.9c-0.2-0.2-0.4-0.4-0.6-0.6c-0.3-0.2-0.5-0.3-0.9-0.3
	c-0.3-0.1-0.6-0.1-1-0.1c-0.3,0-0.6,0-0.9,0.1c-0.3,0-0.6,0.1-0.8,0.2c-0.2,0.1-0.4,0.3-0.6,0.5c-0.2,0.2-0.2,0.4-0.2,0.7
	c0,0.3,0.1,0.6,0.4,0.8c0.2,0.2,0.5,0.4,0.9,0.5c0.4,0.1,0.8,0.3,1.2,0.4c0.5,0.1,0.9,0.2,1.4,0.3c0.5,0.1,1,0.2,1.4,0.4
	c0.5,0.2,0.9,0.4,1.2,0.6c0.4,0.3,0.6,0.6,0.9,0.9c0.2,0.4,0.3,0.9,0.3,1.4c0,0.7-0.1,1.3-0.4,1.8c-0.3,0.5-0.7,0.9-1.2,1.1
	c-0.5,0.3-1,0.5-1.6,0.6c-0.6,0.1-1.2,0.2-1.8,0.2c-0.7,0-1.3-0.1-1.9-0.2c-0.6-0.1-1.1-0.4-1.6-0.7c-0.5-0.3-0.8-0.7-1.1-1.2
	c-0.3-0.5-0.4-1.1-0.5-1.9h1.9C326.5,13.4,326.6,13.8,326.8,14.1z"/>
<path class="st0" d="M126.3,25.6c-0.8-0.6-1.8-0.9-3-0.9c-1,0-1.8,0.2-2.5,0.5c-0.7,0.4-1.3,0.9-1.7,1.5c-0.4,0.6-0.8,1.3-1,2.1
	c-0.2,0.8-0.3,1.6-0.3,2.5c0,0.9,0.1,1.8,0.3,2.6c0.2,0.8,0.5,1.6,1,2.2c0.4,0.6,1,1.1,1.7,1.5c0.7,0.4,1.5,0.5,2.5,0.5
	c0.7,0,1.4-0.1,1.9-0.4c0.6-0.2,1-0.6,1.4-1c0.4-0.4,0.7-0.9,0.9-1.5c0.2-0.6,0.4-1.2,0.4-1.9h2.2c-0.2,2.1-0.9,3.7-2.1,4.8
	c-1.2,1.1-2.9,1.7-4.9,1.7c-1.3,0-2.4-0.2-3.3-0.7c-0.9-0.4-1.7-1-2.4-1.8c-0.6-0.8-1.1-1.7-1.4-2.7c-0.3-1-0.5-2.1-0.5-3.3
	c0-1.2,0.2-2.3,0.5-3.3c0.3-1,0.8-2,1.5-2.7c0.6-0.8,1.5-1.4,2.4-1.8c1-0.4,2.1-0.7,3.3-0.7c0.9,0,1.7,0.1,2.4,0.3
	c0.8,0.2,1.4,0.6,2,1c0.6,0.4,1.1,1,1.5,1.7c0.4,0.7,0.7,1.4,0.8,2.3h-2.2C127.7,27,127.1,26.2,126.3,25.6z"/>
<path class="st0" d="M141.7,39.9c-0.5,0-0.9-0.1-1.2-0.4c-0.3-0.3-0.4-0.7-0.4-1.4c-0.5,0.6-1.1,1.1-1.9,1.4
	c-0.7,0.3-1.5,0.4-2.3,0.4c-0.5,0-1-0.1-1.5-0.2c-0.5-0.1-0.9-0.3-1.2-0.6c-0.4-0.3-0.6-0.6-0.8-1c-0.2-0.4-0.3-0.9-0.3-1.5
	c0-0.7,0.1-1.2,0.3-1.6c0.2-0.4,0.5-0.8,0.9-1c0.4-0.3,0.8-0.5,1.3-0.6c0.5-0.1,1-0.3,1.5-0.3c0.5-0.1,1-0.2,1.5-0.2
	c0.5-0.1,0.9-0.1,1.3-0.2c0.4-0.1,0.7-0.2,0.9-0.4c0.2-0.2,0.3-0.5,0.3-0.8c0-0.4-0.1-0.8-0.2-1c-0.2-0.3-0.4-0.5-0.6-0.6
	c-0.3-0.1-0.5-0.2-0.8-0.3c-0.3,0-0.6-0.1-0.9-0.1c-0.8,0-1.5,0.2-2.1,0.5c-0.5,0.3-0.8,0.9-0.9,1.8h-1.9c0-0.7,0.2-1.4,0.5-1.9
	c0.3-0.5,0.6-0.9,1.1-1.2c0.5-0.3,1-0.5,1.6-0.7c0.6-0.1,1.2-0.2,1.9-0.2c0.5,0,1.1,0,1.6,0.1c0.5,0.1,1,0.2,1.4,0.5
	c0.4,0.2,0.8,0.6,1,1c0.3,0.4,0.4,1,0.4,1.7v6.1c0,0.5,0,0.8,0.1,1c0.1,0.2,0.2,0.3,0.5,0.3c0.2,0,0.4,0,0.6-0.1v1.5
	C142.8,39.8,142.3,39.9,141.7,39.9z M139,33.9c-0.4,0.1-0.8,0.2-1.2,0.2c-0.4,0.1-0.9,0.1-1.3,0.2c-0.4,0.1-0.8,0.2-1.2,0.3
	c-0.3,0.2-0.6,0.4-0.9,0.7c-0.2,0.3-0.3,0.7-0.3,1.2c0,0.3,0.1,0.6,0.2,0.8c0.1,0.2,0.3,0.4,0.5,0.5c0.2,0.1,0.4,0.2,0.7,0.3
	c0.3,0.1,0.6,0.1,0.9,0.1c0.6,0,1.2-0.1,1.6-0.3c0.5-0.2,0.8-0.4,1.1-0.7c0.3-0.3,0.5-0.6,0.6-0.9c0.1-0.3,0.2-0.6,0.2-0.9v-2
	C139.7,33.7,139.4,33.8,139,33.9z"/>
<path class="st0" d="M146.7,27.8v1.9h0.1c0.8-1.4,2.1-2.1,3.8-2.1c0.8,0,1.4,0.1,1.9,0.3c0.5,0.2,0.9,0.5,1.3,0.9
	c0.3,0.4,0.5,0.8,0.7,1.4c0.1,0.5,0.2,1.1,0.2,1.7v7.8h-1.9v-8c0-0.7-0.2-1.3-0.6-1.7c-0.4-0.4-1-0.6-1.8-0.6
	c-0.6,0-1.1,0.1-1.5,0.3s-0.8,0.4-1.1,0.8c-0.3,0.3-0.5,0.7-0.7,1.2c-0.1,0.4-0.2,0.9-0.2,1.5v6.7h-1.9V27.8H146.7z"/>
<path class="st0" d="M166.7,39.9c-0.5,0-0.9-0.1-1.2-0.4c-0.3-0.3-0.4-0.7-0.4-1.4c-0.5,0.6-1.1,1.1-1.9,1.4
	c-0.7,0.3-1.5,0.4-2.3,0.4c-0.5,0-1-0.1-1.5-0.2c-0.5-0.1-0.9-0.3-1.2-0.6c-0.4-0.3-0.6-0.6-0.8-1c-0.2-0.4-0.3-0.9-0.3-1.5
	c0-0.7,0.1-1.2,0.3-1.6c0.2-0.4,0.5-0.8,0.9-1c0.4-0.3,0.8-0.5,1.3-0.6c0.5-0.1,1-0.3,1.5-0.3c0.5-0.1,1-0.2,1.5-0.2
	c0.5-0.1,0.9-0.1,1.3-0.2c0.4-0.1,0.7-0.2,0.9-0.4c0.2-0.2,0.3-0.5,0.3-0.8c0-0.4-0.1-0.8-0.2-1c-0.2-0.3-0.4-0.5-0.6-0.6
	c-0.3-0.1-0.5-0.2-0.8-0.3c-0.3,0-0.6-0.1-0.9-0.1c-0.8,0-1.5,0.2-2.1,0.5c-0.5,0.3-0.8,0.9-0.9,1.8h-1.9c0-0.7,0.2-1.4,0.5-1.9
	c0.3-0.5,0.6-0.9,1.1-1.2c0.5-0.3,1-0.5,1.6-0.7c0.6-0.1,1.2-0.2,1.9-0.2c0.5,0,1.1,0,1.6,0.1c0.5,0.1,1,0.2,1.4,0.5
	c0.4,0.2,0.8,0.6,1,1c0.3,0.4,0.4,1,0.4,1.7v6.1c0,0.5,0,0.8,0.1,1c0.1,0.2,0.2,0.3,0.5,0.3c0.2,0,0.4,0,0.6-0.1v1.5
	C167.7,39.8,167.3,39.9,166.7,39.9z M163.9,33.9c-0.4,0.1-0.8,0.2-1.2,0.2c-0.4,0.1-0.9,0.1-1.3,0.2c-0.4,0.1-0.8,0.2-1.2,0.3
	c-0.3,0.2-0.6,0.4-0.9,0.7c-0.2,0.3-0.3,0.7-0.3,1.2c0,0.3,0.1,0.6,0.2,0.8c0.1,0.2,0.3,0.4,0.5,0.5c0.2,0.1,0.4,0.2,0.7,0.3
	c0.3,0.1,0.6,0.1,0.9,0.1c0.6,0,1.2-0.1,1.6-0.3c0.5-0.2,0.8-0.4,1.1-0.7c0.3-0.3,0.5-0.6,0.6-0.9c0.1-0.3,0.2-0.6,0.2-0.9v-2
	C164.7,33.7,164.3,33.8,163.9,33.9z"/>
<path class="st0" d="M178.5,39.6l0-1.6h-0.1c-0.3,0.7-0.8,1.1-1.5,1.4c-0.7,0.3-1.4,0.4-2.3,0.4c-0.9,0-1.7-0.2-2.4-0.5
	c-0.7-0.3-1.2-0.8-1.7-1.4c-0.4-0.6-0.8-1.2-1-2c-0.2-0.7-0.3-1.5-0.3-2.4c0-0.8,0.1-1.6,0.3-2.4c0.2-0.7,0.6-1.4,1-2
	c0.4-0.6,1-1,1.7-1.3c0.7-0.3,1.5-0.5,2.4-0.5c0.3,0,0.6,0,1,0.1c0.3,0.1,0.7,0.2,1.1,0.3c0.3,0.1,0.7,0.3,1,0.6
	c0.3,0.2,0.6,0.5,0.8,0.9h0.1v-6.1h1.9v16.3H178.5z M171.5,35.4c0.1,0.5,0.4,1,0.7,1.4c0.3,0.4,0.7,0.7,1.1,1
	c0.5,0.2,1,0.4,1.6,0.4c0.7,0,1.2-0.1,1.7-0.4c0.5-0.3,0.8-0.6,1.1-1c0.3-0.4,0.5-0.9,0.6-1.4c0.1-0.5,0.2-1.1,0.2-1.6
	c0-0.6-0.1-1.1-0.2-1.7c-0.1-0.5-0.4-1-0.7-1.4c-0.3-0.4-0.7-0.7-1.2-1c-0.5-0.2-1-0.4-1.7-0.4c-0.7,0-1.2,0.1-1.7,0.4
	c-0.5,0.3-0.8,0.6-1.1,1c-0.3,0.4-0.5,0.9-0.6,1.5c-0.1,0.5-0.2,1.1-0.2,1.7C171.3,34.3,171.4,34.9,171.5,35.4z"/>
<path class="st0" d="M192.5,39.9c-0.5,0-0.9-0.1-1.2-0.4c-0.3-0.3-0.4-0.7-0.4-1.4c-0.5,0.6-1.1,1.1-1.9,1.4
	c-0.7,0.3-1.5,0.4-2.3,0.4c-0.5,0-1-0.1-1.5-0.2c-0.5-0.1-0.9-0.3-1.2-0.6c-0.4-0.3-0.6-0.6-0.8-1c-0.2-0.4-0.3-0.9-0.3-1.5
	c0-0.7,0.1-1.2,0.3-1.6c0.2-0.4,0.5-0.8,0.9-1c0.4-0.3,0.8-0.5,1.3-0.6c0.5-0.1,1-0.3,1.5-0.3c0.5-0.1,1-0.2,1.5-0.2
	c0.5-0.1,0.9-0.1,1.3-0.2c0.4-0.1,0.7-0.2,0.9-0.4c0.2-0.2,0.3-0.5,0.3-0.8c0-0.4-0.1-0.8-0.2-1c-0.2-0.3-0.4-0.5-0.6-0.6
	c-0.3-0.1-0.5-0.2-0.8-0.3c-0.3,0-0.6-0.1-0.9-0.1c-0.8,0-1.5,0.2-2.1,0.5c-0.5,0.3-0.8,0.9-0.9,1.8h-1.9c0-0.7,0.2-1.4,0.5-1.9
	c0.3-0.5,0.6-0.9,1.1-1.2c0.5-0.3,1-0.5,1.6-0.7c0.6-0.1,1.2-0.2,1.9-0.2c0.5,0,1.1,0,1.6,0.1c0.5,0.1,1,0.2,1.4,0.5
	c0.4,0.2,0.8,0.6,1,1c0.3,0.4,0.4,1,0.4,1.7v6.1c0,0.5,0,0.8,0.1,1c0.1,0.2,0.2,0.3,0.5,0.3c0.2,0,0.4,0,0.6-0.1v1.5
	C193.6,39.8,193.1,39.9,192.5,39.9z M189.8,33.9c-0.4,0.1-0.8,0.2-1.2,0.2c-0.4,0.1-0.9,0.1-1.3,0.2c-0.4,0.1-0.8,0.2-1.2,0.3
	c-0.3,0.2-0.6,0.4-0.9,0.7c-0.2,0.3-0.3,0.7-0.3,1.2c0,0.3,0.1,0.6,0.2,0.8c0.1,0.2,0.3,0.4,0.5,0.5c0.2,0.1,0.4,0.2,0.7,0.3
	c0.3,0.1,0.6,0.1,0.9,0.1c0.6,0,1.2-0.1,1.6-0.3c0.5-0.2,0.8-0.4,1.1-0.7c0.3-0.3,0.5-0.6,0.6-0.9c0.1-0.3,0.2-0.6,0.2-0.9v-2
	C190.5,33.7,190.2,33.8,189.8,33.9z"/>
</svg>
