<?xml version="1.0" encoding="utf-8"?>
<!-- Generator: Adobe Illustrator 21.0.2, SVG Export Plug-In . SVG Version: 6.00 Build 0)  -->
<svg version="1.1" id="Layer_1" xmlns="http://www.w3.org/2000/svg" xmlns:xlink="http://www.w3.org/1999/xlink" x="0px" y="0px"
	 viewBox="0 0 608 45" style="enable-background:new 0 0 525 48;" xml:space="preserve">
<style type="text/css">
	.st0{fill:"black";}
</style>
<polygon class="st0" points="0,0 21.2,0 21.2,41.8 0,41.8 0,0 "/>
<polygon class="st0" points="63.2,0 84.2,0 84.2,41.8 63.2,41.8 63.2,0 "/>
<polygon class="st0" points="40.7,38.6 40.7,30.5 33.4,31.5 34,28.5 26.3,21.5 27.9,19.1 26.2,15.7 30.6,15.7 31.9,13.6 36.7,17
	35.4,8.6 38.5,9.6 42,4.4 45.5,9.6 48.5,8.6 47.2,17 52,13.6 53.3,15.7 57.8,15.7 56,19.1 57.7,21.5 49.9,28.5 50.6,31.5 43.3,30.5
	43.3,38.6 40.7,38.6 "/>
<path class="st0" d="M124.3,30.1c-1-3.5-3.4-5.6-7-5.6c-2.1,0-4,1.1-4.8,1.8c-2,1.9-2.7,4.8-2.7,7.2c0,2.4,0.7,5.3,2.7,7.2
	c0.7,0.7,2.6,1.7,4.8,1.8c3.9,0,6.6-2.9,7.3-6.8h-2.3c-0.9,3.3-2.4,4.8-4.9,4.8c-1.4,0-2.8-0.5-3.7-1.6c-1-1.2-1.7-3.3-1.6-5.4
	c0-2.1,0.6-4.2,1.6-5.4c0.9-1.1,2.3-1.6,3.7-1.6c2.4,0,3.8,1.4,4.6,3.6H124.3L124.3,30.1z"/>
<path class="st0" d="M136.9,31.8c0-1.2-1.3-2-2.9-2.4c-0.8-0.2-1.5-0.2-2.1-0.2c-1.1,0-1.9,0.2-2.5,0.5c-1.3,0.6-1.9,1.7-2,2.4
	l-0.1,1.1h1.9c0-0.6,0.2-2.3,2.5-2.3c1.3,0,3,0.4,3.2,1.3v1.5c0,0.7-0.7,0.9-1,0.9c-1.2,0.3-2.3,0.1-4.6,0.7
	c-1.3,0.4-2.4,1.2-2.6,3.2c-0.2,2.4,1.6,3.9,4.3,3.9c1.6,0,3-1.1,3.9-1.8c0.1,0.8,0.9,1.8,1.8,1.8c0.7,0,1.1-0.1,1.5-0.2v-1.6
	c-0.1,0.1-0.3,0.1-0.4,0.1c-0.5,0-0.9-0.4-0.9-0.7V31.8L136.9,31.8z M134.9,38.4c0,0.4-1.3,2.5-4,2.4c-1.1,0-2.2-0.6-2.2-2.1
	c0-0.9,0.8-1.5,1.2-1.7c1.2-0.5,3.4-0.5,5-1.1V38.4L134.9,38.4z"/>
<path class="st0" d="M140.4,29.6v12.3h2v-6.6c0-3.3,1.7-4.4,3.4-4.4c1.4,0,2.5,0.8,2.5,2.3v8.6h2v-9.6c-0.3-1.8-1.3-2.4-2-2.8
	c-0.3-0.1-1.1-0.3-2-0.3c-0.9,0-1.9,0.1-2.4,0.6c-0.5,0.2-1,0.8-1.4,1.3h0v-1.6H140.4L140.4,29.6z"/>
<path class="st0" d="M163.1,31.8c0-1.2-1.3-2-2.9-2.4c-0.8-0.2-1.5-0.2-2.1-0.2c-1.1,0-1.9,0.2-2.5,0.5c-1.3,0.6-1.9,1.7-2,2.4
	l-0.1,1.1h1.9c0-0.6,0.2-2.3,2.5-2.3c1.3,0,3,0.4,3.2,1.3v1.5c0,0.7-0.7,0.9-1,0.9c-1.2,0.3-2.3,0.1-4.6,0.7
	c-1.3,0.4-2.4,1.2-2.6,3.2c-0.2,2.4,1.6,3.9,4.3,3.9c1.6,0,3-1.1,3.9-1.8c0.1,0.8,0.9,1.8,1.8,1.8c0.7,0,1.1-0.1,1.5-0.2v-1.6
	c-0.1,0.1-0.3,0.1-0.4,0.1c-0.5,0-0.9-0.4-0.9-0.7V31.8L163.1,31.8z M161,38.4c0,0.4-1.3,2.5-4,2.4c-1.1,0-2.2-0.6-2.2-2.1
	c0-0.9,0.8-1.5,1.2-1.7c1.2-0.5,3.4-0.5,5-1.1V38.4L161,38.4z"/>
<path class="st0" d="M174.6,24.8v6.3h0c-0.1-0.3-0.5-0.8-1.1-1.1c-0.5-0.4-1.5-0.8-2.7-0.8c-1.2,0-2.4,0.4-3.6,1.6
	c-1.2,1.2-1.8,3.6-1.6,5.8c0.2,2.3,1.2,4.4,3,5.3c0.7,0.3,1.6,0.5,2.5,0.5c0.8,0,1.6-0.2,2.1-0.5c0.7-0.4,1.3-1,1.7-1.5V42h1.7V24.8
	H174.6L174.6,24.8z M168.8,39.5c-1.5-2.1-1.2-5.6-0.2-7c0.6-0.9,1.6-1.2,2.6-1.2c1,0,1.9,0.4,2.4,1.2c0.7,0.9,1.7,4.2,0.1,6.8
	c-0.5,0.8-1.4,1.3-2.4,1.3C170.4,40.7,169.5,40.3,168.8,39.5L168.8,39.5z"/>
<path class="st0" d="M189.2,31.8c0-1.2-1.3-2-2.9-2.4c-0.8-0.2-1.5-0.2-2.1-0.2c-1.1,0-1.9,0.2-2.5,0.5c-1.3,0.6-1.9,1.7-2,2.4
	l-0.1,1.1h1.9c0-0.6,0.2-2.3,2.5-2.3c1.3,0,3,0.4,3.2,1.3v1.5c0,0.7-0.7,0.9-1,0.9c-1.2,0.3-2.3,0.1-4.6,0.7
	c-1.3,0.4-2.4,1.2-2.6,3.2c-0.2,2.4,1.6,3.9,4.3,3.9c1.6,0,3-1.1,3.9-1.8c0.1,0.8,0.9,1.8,1.8,1.8c0.7,0,1.1-0.1,1.5-0.2v-1.6
	c-0.1,0.1-0.3,0.1-0.4,0.1c-0.5,0-0.9-0.4-0.9-0.7V31.8L189.2,31.8z M187.2,38.4c0,0.4-1.3,2.5-4,2.4c-1.1,0-2.2-0.6-2.2-2.1
	c0-0.9,0.8-1.5,1.2-1.7c1.2-0.5,3.4-0.5,5-1.1V38.4L187.2,38.4z"/>
<polygon class="st0" points="116.7,15.3 111.8,0.8 109.4,0.8 115.5,18 117.9,18 123.9,0.8 121.5,0.8 116.7,15.3 "/>
<path class="st0" d="M134.6,12.6c0-2.3,0-3.7-1.4-5.6c-0.8-0.9-2.1-1.6-3.7-1.8c-1.5-0.1-3.2,0.4-4.5,1.9c-1,1.1-1.5,2.9-1.5,4.8
	c0,1.8,0.4,3.6,1.2,4.7c1.1,1.3,2.7,2,4.4,2c1.6,0,3.2-0.6,4.2-1.8c0.8-0.9,0.9-1.7,1.1-2.5h-2c-0.3,0.7-0.8,2.6-3.3,2.6
	c-1.4,0-2.2-0.8-2.8-1.5c-0.7-1.1-0.8-1.8-0.7-2.7H134.6L134.6,12.6z M125.7,10.9c0-1.2,0.8-2.6,1.1-2.9c0.7-0.9,1.7-1.2,2.7-1.1
	c1,0.1,1.9,0.5,2.1,1.1c0.3,0.3,1,1.7,0.9,2.9H125.7L125.7,10.9z"/>
<path class="st0" d="M139.6,2.3h-2v3.3h-1.7v1.8h1.7v9.3c0,0.5,0.4,1.6,1.8,1.7c0.8,0.1,1.3,0,2.1-0.1v-1.7c-1.1,0.2-2,0.1-2-0.6
	V7.4h2V5.6h-2V2.3L139.6,2.3z"/>
<path class="st0" d="M154.2,12.6c0-2.3,0-3.7-1.4-5.6c-0.8-0.9-2.1-1.6-3.7-1.8c-1.5-0.1-3.2,0.4-4.5,1.9c-1,1.1-1.5,2.9-1.5,4.8
	c0,1.8,0.4,3.6,1.2,4.7c1.1,1.3,2.7,2,4.4,2c1.6,0,3.2-0.6,4.2-1.8c0.8-0.9,0.9-1.7,1.1-2.5h-2c-0.3,0.7-0.8,2.6-3.3,2.6
	c-1.4,0-2.2-0.8-2.8-1.5c-0.7-1.1-0.8-1.8-0.7-2.7H154.2L154.2,12.6z M145.3,10.9c0-1.2,0.8-2.6,1.1-2.9c0.7-0.9,1.7-1.2,2.7-1.1
	c1,0.1,1.9,0.5,2.1,1.1c0.3,0.3,1,1.7,0.9,2.9H145.3L145.3,10.9z"/>
<path class="st0" d="M156.8,18h2v-6.4c0-2.1,0.7-3.3,2.1-3.9c0.5-0.2,1.2-0.3,1.9-0.3V5.3h-1.1c-0.9,0.1-2.1,0.9-2.8,2.3h0V5.6h-2
	V18L156.8,18z"/>
<path class="st0" d="M174.2,7.9c0-1.2-1.3-2-2.9-2.4c-0.8-0.2-1.5-0.2-2.1-0.2c-1.1,0-1.9,0.2-2.5,0.5c-1.3,0.6-1.9,1.7-2,2.4
	l-0.1,1.1h1.9c0-0.6,0.2-2.3,2.5-2.3c1.3,0,3,0.4,3.2,1.3v1.5c0,0.7-0.7,0.9-1,0.9c-1.2,0.3-2.3,0.1-4.6,0.7
	c-1.3,0.4-2.4,1.2-2.6,3.2c-0.2,2.4,1.6,3.9,4.3,3.9c1.6,0,3-1.1,3.9-1.8c0.1,0.8,0.9,1.8,1.8,1.8c0.7,0,1.1-0.1,1.5-0.2v-1.6
	c-0.1,0.1-0.3,0.1-0.4,0.1c-0.5,0-0.9-0.4-0.9-0.7V7.9L174.2,7.9z M172.2,14.4c0,0.4-1.3,2.5-4,2.4c-1.1,0-2.2-0.6-2.2-2.1
	c0-0.9,0.8-1.5,1.2-1.7c1.2-0.5,3.4-0.5,5-1.1V14.4L172.2,14.4z"/>
<path class="st0" d="M177.8,5.6V18h2v-6.6c0-3.3,1.7-4.4,3.4-4.4c1.4,0,2.5,0.8,2.5,2.3V18h2V8.4c-0.3-1.8-1.3-2.4-2-2.8
	c-0.3-0.1-1.1-0.3-2-0.3c-0.9,0-1.9,0.1-2.4,0.6c-0.5,0.2-1,0.8-1.4,1.3h0V5.6H177.8L177.8,5.6z"/>
<path class="st0" d="M190,14.3c0,1.2,0.3,3.4,3.1,4c0.7,0.2,1.6,0.2,2.4,0.2c0.8-0.1,1.6-0.2,2.3-0.5c1.3-0.6,2-1.8,2.2-3
	c0.2-1.2-0.3-2.4-1.3-3.1c-0.9-0.5-1.9-0.8-2.8-0.9c-1.2-0.3-2.2-0.5-2.9-0.9c-0.7-0.4-0.9-1.1-0.6-1.7c0.3-0.7,1.2-1.3,2.4-1.3
	c2.8,0,2.8,1.3,2.8,2h1.9c0-1.4-0.5-3.8-4.6-3.8c-2.4,0-4.5,1.3-4.5,3.7c0,1.8,0.8,2.7,1.8,3c1.1,0.5,3,0.9,4.6,1.2
	c1,0.3,1.3,0.9,1.3,1.6c0,0.6-0.4,1.2-0.8,1.5c-0.3,0.2-0.9,0.4-1.6,0.6c-0.6,0-1.3,0-1.7-0.1c-1.4-0.4-2.1-1.2-2.1-2.4H190
	L190,14.3z"/>
<path class="st0" d="M210.8,12.9h6.6l1.7,5.1h2.5l-6-17.1h-2.7L206.6,18h2.4L210.8,12.9L210.8,12.9z M214.2,3.5l2.5,7.5h-5.3
	L214.2,3.5L214.2,3.5z"/>
<path class="st0" d="M224,18h2V7.4h2V5.6h-2V3.8c0-1.3,0.8-1.5,2-1.3V0.9c-0.7-0.1-1.4-0.1-2,0c-0.3,0-2,0.7-2,2.7v2.1h-1.7v1.8h1.7
	V18L224,18z"/>
<path class="st0" d="M230.1,18h2V7.4h2V5.6h-2V3.8c0-1.3,0.8-1.5,2-1.3V0.9c-0.7-0.1-1.4-0.1-2,0c-0.3,0-2,0.7-2,2.7v2.1h-1.7v1.8
	h1.7V18L230.1,18z"/>
<path class="st0" d="M245.7,7.9c0-1.2-1.3-2-2.9-2.4c-0.8-0.2-1.5-0.2-2.1-0.2c-1.1,0-1.9,0.2-2.5,0.5c-1.3,0.6-1.9,1.7-2,2.4
	l-0.1,1.1h1.9c0-0.6,0.2-2.3,2.5-2.3c1.3,0,3,0.4,3.2,1.3v1.5c0,0.7-0.7,0.9-1,0.9c-1.2,0.3-2.3,0.1-4.6,0.7
	c-1.3,0.4-2.4,1.2-2.6,3.2c-0.2,2.4,1.6,3.9,4.3,3.9c1.6,0,3-1.1,3.9-1.8c0.1,0.8,0.9,1.8,1.8,1.8c0.7,0,1.1-0.1,1.5-0.2v-1.6
	c-0.1,0.1-0.3,0.1-0.4,0.1c-0.5,0-0.9-0.4-0.9-0.7V7.9L245.7,7.9z M243.7,14.4c0,0.4-1.3,2.5-4,2.4c-1.1,0-2.2-0.6-2.2-2.1
	c0-0.9,0.8-1.5,1.2-1.7c1.2-0.5,3.4-0.5,5-1.1V14.4L243.7,14.4z"/>
<path class="st0" d="M251.1,5.6h-2V18h2V5.6L251.1,5.6z M251.1,0.8h-2v2.4h2V0.8L251.1,0.8z"/>
<path class="st0" d="M254.5,18h2v-6.4c0-2.1,0.7-3.3,2.1-3.9c0.5-0.2,1.2-0.3,1.9-0.3V5.3h-1.1c-0.9,0.1-2.1,0.9-2.8,2.3h0V5.6h-2
	V18L254.5,18z"/>
<path class="st0" d="M261.5,14.3c0,1.2,0.3,3.4,3.1,4c0.7,0.2,1.6,0.2,2.4,0.2c0.8-0.1,1.6-0.2,2.3-0.5c1.3-0.6,2-1.8,2.2-3
	c0.2-1.2-0.3-2.4-1.3-3.1c-0.9-0.5-1.9-0.8-2.8-0.9c-1.2-0.3-2.2-0.5-2.9-0.9c-0.7-0.4-0.9-1.1-0.6-1.7c0.3-0.7,1.2-1.3,2.4-1.3
	c2.8,0,2.8,1.3,2.8,2h1.9c0-1.4-0.5-3.8-4.6-3.8c-2.4,0-4.5,1.3-4.5,3.7c0,1.8,0.8,2.7,1.8,3c1.1,0.5,3,0.9,4.6,1.2
	c1,0.3,1.3,0.9,1.3,1.6c0,0.6-0.4,1.2-0.8,1.5c-0.3,0.2-0.9,0.4-1.6,0.6c-0.6,0-1.3,0-1.7-0.1c-1.4-0.4-2.1-1.2-2.1-2.4H261.5
	L261.5,14.3z"/>
<path class="st0" d="M310.8,29.9c-1-3.5-3.4-5.6-7-5.6c-2.1,0-4,1.1-4.8,1.8c-2,1.9-2.7,4.8-2.7,7.2c0,2.4,0.7,5.3,2.7,7.2
	c0.7,0.7,2.6,1.7,4.8,1.8c3.9,0,6.6-2.9,7.3-6.8h-2.3c-0.9,3.3-2.4,4.8-4.9,4.8c-1.4,0-2.8-0.5-3.7-1.6c-1-1.2-1.7-3.3-1.6-5.4
	c0-2.1,0.6-4.2,1.6-5.4c0.9-1.1,2.3-1.6,3.7-1.6c2.4,0,3.8,1.4,4.6,3.6H310.8L310.8,29.9z"/>
<path class="st0" d="M323.4,31.7c0-1.2-1.3-2-2.9-2.4c-0.8-0.2-1.5-0.2-2.1-0.2c-1.1,0-1.9,0.2-2.5,0.5c-1.3,0.6-1.9,1.7-2,2.4
	l-0.1,1.1h1.9c0-0.6,0.2-2.3,2.5-2.3c1.3,0,3,0.4,3.2,1.3v1.5c0,0.7-0.7,0.9-1,0.9c-1.2,0.3-2.3,0.1-4.6,0.7
	c-1.3,0.4-2.4,1.2-2.6,3.2c-0.2,2.4,1.6,3.9,4.3,3.9c1.6,0,3-1.1,3.9-1.8c0.1,0.8,0.9,1.8,1.8,1.8c0.7,0,1.1-0.1,1.5-0.2v-1.6
	c-0.1,0.1-0.3,0.1-0.4,0.1c-0.5,0-0.9-0.4-0.9-0.7V31.7L323.4,31.7z M321.3,38.2c0,0.4-1.3,2.5-4,2.4c-1.1,0-2.2-0.6-2.2-2.1
	c0-0.9,0.8-1.5,1.2-1.7c1.2-0.5,3.4-0.5,5-1.1V38.2L321.3,38.2z"/>
<path class="st0" d="M326.9,29.5v12.3h2v-6.6c0-3.3,1.7-4.4,3.4-4.4c1.4,0,2.5,0.8,2.5,2.3v8.6h2v-9.6c-0.3-1.8-1.3-2.4-2-2.8
	c-0.3-0.1-1.1-0.3-2-0.3c-0.9,0-1.9,0.1-2.4,0.6c-0.5,0.2-1,0.8-1.4,1.3h0v-1.6H326.9L326.9,29.5z"/>
<path class="st0" d="M349.5,31.7c0-1.2-1.3-2-2.9-2.4c-0.8-0.2-1.5-0.2-2.1-0.2c-1.1,0-1.9,0.2-2.5,0.5c-1.3,0.6-1.9,1.7-2,2.4
	l-0.1,1.1h1.9c0-0.6,0.2-2.3,2.5-2.3c1.3,0,3,0.4,3.2,1.3v1.5c0,0.7-0.7,0.9-1,0.9c-1.2,0.3-2.3,0.1-4.6,0.7
	c-1.3,0.4-2.4,1.2-2.6,3.2c-0.2,2.4,1.6,3.9,4.3,3.9c1.6,0,3-1.1,3.9-1.8c0.1,0.8,0.9,1.8,1.8,1.8c0.7,0,1.1-0.1,1.5-0.2v-1.6
	c-0.1,0.1-0.3,0.1-0.4,0.1c-0.5,0-0.9-0.4-0.9-0.7V31.7L349.5,31.7z M347.5,38.2c0,0.4-1.3,2.5-4,2.4c-1.1,0-2.2-0.6-2.2-2.1
	c0-0.9,0.8-1.5,1.2-1.7c1.2-0.5,3.4-0.5,5-1.1V38.2L347.5,38.2z"/>
<path class="st0" d="M361.1,24.7V31h0c-0.1-0.3-0.5-0.8-1.1-1.1c-0.5-0.4-1.5-0.8-2.7-0.8c-1.2,0-2.4,0.4-3.6,1.6
	c-1.2,1.2-1.8,3.6-1.6,5.8c0.2,2.3,1.2,4.4,3,5.3c0.7,0.3,1.6,0.5,2.5,0.5c0.8,0,1.6-0.2,2.1-0.5c0.7-0.4,1.3-1,1.7-1.5v1.4h1.7
	V24.7H361.1L361.1,24.7z M355.3,39.4c-1.5-2.1-1.2-5.6-0.2-7c0.6-0.9,1.6-1.2,2.6-1.2c1,0,1.9,0.4,2.4,1.2c0.7,0.9,1.7,4.2,0.1,6.8
	c-0.5,0.8-1.4,1.3-2.4,1.3C356.9,40.6,355.9,40.2,355.3,39.4L355.3,39.4z"/>
<path class="st0" d="M375.7,31.7c0-1.2-1.3-2-2.9-2.4c-0.8-0.2-1.5-0.2-2.1-0.2c-1.1,0-1.9,0.2-2.5,0.5c-1.3,0.6-1.9,1.7-2,2.4
	l-0.1,1.1h1.9c0-0.6,0.2-2.3,2.5-2.3c1.3,0,3,0.4,3.2,1.3v1.5c0,0.7-0.7,0.9-1,0.9c-1.2,0.3-2.3,0.1-4.6,0.7
	c-1.3,0.4-2.4,1.2-2.6,3.2c-0.2,2.4,1.6,3.9,4.3,3.9c1.6,0,3-1.1,3.9-1.8c0.1,0.8,0.9,1.8,1.8,1.8c0.7,0,1.1-0.1,1.5-0.2v-1.6
	c-0.1,0.1-0.3,0.1-0.4,0.1c-0.5,0-0.9-0.4-0.9-0.7V31.7L375.7,31.7z M373.6,38.2c0,0.4-1.3,2.5-4,2.4c-1.1,0-2.2-0.6-2.2-2.1
	c0-0.9,0.8-1.5,1.2-1.7c1.2-0.5,3.4-0.5,5-1.1V38.2L373.6,38.2z"/>
<path class="st0" d="M299.8,12.7h6.6l1.7,5.1h2.5l-6-17.1h-2.7l-6.2,17.1h2.4L299.8,12.7L299.8,12.7z M303.2,3.4l2.5,7.5h-5.3
	L303.2,3.4L303.2,3.4z"/>
<path class="st0" d="M312.5,5.5v12.3h2v-6.6c0-3.3,1.7-4.4,3.4-4.4c1.4,0,2.5,0.8,2.5,2.3v8.6h2V8.2c-0.3-1.8-1.3-2.4-2-2.8
	c-0.3-0.1-1.1-0.3-2-0.3c-0.9,0-1.9,0.1-2.4,0.6c-0.5,0.2-1,0.8-1.4,1.3h0V5.5H312.5L312.5,5.5z"/>
<path class="st0" d="M333.3,13.6c-0.1,0.5-0.3,1.1-0.6,1.6c-0.3,0.7-1.2,1.3-2.4,1.3c-1.1,0-2.3-0.4-3.1-1.9
	c-0.4-0.8-0.5-2.1-0.4-3.3c0.1-1.2,0.4-2.4,1-3.1c0.8-0.9,1.7-1.2,2.4-1.3c0.7,0,1.3,0.2,1.7,0.4c0.8,0.4,1.1,1,1.3,2.3h2
	c-0.1-1.4-0.6-2.8-1.5-3.4c-0.8-0.7-2.1-1.1-3.5-1.1c-1.3,0-2.7,0.5-3.7,1.7c-1.2,1.4-1.7,3.2-1.8,4.8c0,1.6,0.4,3.2,0.8,4.2
	c0.8,1.6,2.5,2.5,4.3,2.6c1.8,0.1,3.7-0.7,4.7-2.3c0.3-0.6,0.6-1.5,0.7-2.5H333.3L333.3,13.6z"/>
<path class="st0" d="M339.2,5.5h-2v12.3h2V5.5L339.2,5.5z M339.2,0.7h-2v2.4h2V0.7L339.2,0.7z"/>
<path class="st0" d="M353,12.5c0-2.3,0-3.7-1.4-5.5c-0.8-0.9-2.1-1.6-3.7-1.8c-1.5-0.1-3.2,0.4-4.5,1.9c-1,1.1-1.5,2.9-1.5,4.8
	c0,1.8,0.4,3.6,1.2,4.7c1.1,1.3,2.7,2,4.4,2c1.6,0,3.2-0.6,4.2-1.8c0.8-0.9,0.9-1.7,1.1-2.5h-2c-0.3,0.7-0.8,2.6-3.3,2.6
	c-1.4,0-2.2-0.8-2.8-1.5c-0.7-1.1-0.8-1.8-0.7-2.7H353L353,12.5z M344.1,10.7c0-1.2,0.8-2.6,1.1-2.9c0.7-0.9,1.7-1.2,2.7-1.1
	c1,0.1,1.9,0.5,2.1,1.1c0.3,0.3,1,1.7,0.9,2.9H344.1L344.1,10.7z"/>
<path class="st0" d="M355.7,5.5v12.3h2v-6.6c0-3.3,1.7-4.4,3.4-4.4c1.4,0,2.5,0.8,2.5,2.3v8.6h2V8.2c-0.3-1.8-1.3-2.4-2-2.8
	c-0.3-0.1-1.1-0.3-2-0.3c-0.9,0-1.9,0.1-2.4,0.6c-0.5,0.2-1,0.8-1.4,1.3h0V5.5H355.7L355.7,5.5z"/>
<path class="st0" d="M367.9,14.2c0,1.2,0.3,3.4,3.1,4c0.7,0.2,1.6,0.2,2.4,0.2c0.8-0.1,1.6-0.2,2.3-0.5c1.3-0.6,2-1.8,2.2-3
	c0.2-1.2-0.3-2.4-1.3-3.1c-0.9-0.5-1.9-0.8-2.8-0.9c-1.2-0.3-2.2-0.5-2.9-0.9c-0.7-0.4-0.9-1.1-0.6-1.7c0.3-0.7,1.2-1.3,2.4-1.3
	c2.8,0,2.8,1.3,2.8,2h1.9c0-1.4-0.5-3.8-4.6-3.8c-2.4,0-4.5,1.3-4.5,3.7c0,1.8,0.8,2.7,1.8,3c1.1,0.5,3,0.9,4.6,1.2
	c1,0.3,1.3,0.9,1.3,1.6c0,0.6-0.4,1.2-0.8,1.5c-0.3,0.2-0.9,0.4-1.6,0.6c-0.6,0-1.3,0-1.7-0.1c-1.4-0.4-2.1-1.2-2.1-2.4H367.9
	L367.9,14.2z"/>
<path class="st0" d="M401,6c-1-3.5-3.4-5.6-7-5.6c-2.1,0-4,1.1-4.8,1.8c-2,1.9-2.7,4.8-2.7,7.2c0,2.4,0.7,5.3,2.7,7.2
	c0.7,0.7,2.6,1.7,4.8,1.8c3.9,0,6.6-2.9,7.3-6.8H399c-0.9,3.3-2.4,4.8-4.9,4.8c-1.4,0-2.8-0.5-3.7-1.6c-1-1.2-1.7-3.3-1.6-5.4
	c0-2.1,0.6-4.2,1.6-5.4c0.9-1.1,2.3-1.6,3.7-1.6c2.4,0,3.8,1.4,4.6,3.6H401L401,6z"/>
<path class="st0" d="M414.4,11.8c0-5.5-3.3-6.6-5.6-6.6c-2.3,0-5.6,1.1-5.6,6.6c0,5.5,3.3,6.6,5.6,6.6
	C411,18.4,414.4,17.3,414.4,11.8L414.4,11.8z M412.3,11.8c0,2-0.9,4.7-3.6,4.7c-2.6,0-3.6-2.6-3.6-4.7s1-4.6,3.6-4.6
	C411.4,7.1,412.3,9.7,412.3,11.8L412.3,11.8z"/>
<path class="st0" d="M417.1,17.8h2V9.9c0.1-1.7,1.3-3,2.9-3c1,0,2.1,0.4,2.3,2v8.9h2V9.5c0.2-1.3,1-2.5,2.8-2.5
	c1.2,0,2.1,0.5,2.4,2.1v8.8h2V8.2c0-1.1-0.8-2.2-1.6-2.7c-0.6-0.3-1.4-0.4-2.3-0.4c-0.5,0-1.3,0.1-1.8,0.3c-0.8,0.3-1.2,0.9-1.7,1.5
	c-0.5-0.8-0.8-1.1-1.3-1.4c-0.6-0.5-1.3-0.5-2-0.5c-1,0-1.8,0.2-2.3,0.5c-0.5,0.3-1,1-1.2,1.4h0V5.5h-2V17.8L417.1,17.8z"/>
<path class="st0" d="M436.3,0.7v17.1h1.7v-1.4c0.4,0.5,1,0.9,1.7,1.4c0.5,0.3,1.3,0.5,2.1,0.5s1.7-0.2,2.4-0.5
	c1.8-0.9,2.8-3.1,3-5.3c0.2-2.2-0.4-4.6-1.6-5.8c-1.2-1.2-2.5-1.6-3.6-1.6c-1.2,0-2.1,0.4-2.7,0.7c-0.6,0.4-0.9,0.8-1.1,1.1h0V0.7
	H436.3L436.3,0.7z M444.1,15.4c-0.6,0.8-1.6,1.2-2.6,1.1c-1-0.1-1.9-0.5-2.4-1.3c-1.6-2.7-0.5-5.9,0.1-6.8c0.5-0.7,1.5-1.2,2.4-1.2
	c1,0,2,0.3,2.6,1.2C445.3,9.8,445.6,13.3,444.1,15.4L444.1,15.4z"/>
<path class="st0" d="M459.3,7.7c0-1.2-1.3-2-2.9-2.4c-0.8-0.2-1.5-0.2-2.1-0.2c-1.1,0-1.9,0.2-2.5,0.5c-1.3,0.6-1.9,1.7-2,2.4
	l-0.1,1.1h1.9c0-0.6,0.2-2.3,2.5-2.3c1.3,0,3,0.4,3.2,1.3v1.5c0,0.7-0.7,0.9-1,0.9c-1.2,0.3-2.3,0.1-4.6,0.7
	c-1.3,0.4-2.4,1.2-2.6,3.2c-0.2,2.4,1.6,3.9,4.3,3.9c1.6,0,3-1.1,3.9-1.8c0.1,0.8,0.9,1.8,1.8,1.8c0.7,0,1.1-0.1,1.5-0.2v-1.6
	c-0.1,0.1-0.3,0.1-0.4,0.1c-0.5,0-0.9-0.4-0.9-0.7V7.7L459.3,7.7z M457.3,14.3c0,0.4-1.3,2.5-4,2.4c-1.1,0-2.2-0.6-2.2-2.1
	c0-0.9,0.8-1.5,1.2-1.7c1.2-0.5,3.4-0.5,5-1.1V14.3L457.3,14.3z"/>
<path class="st0" d="M465.2,2.2h-2v3.3h-1.7v1.8h1.7v9.3c0,0.5,0.4,1.6,1.8,1.7c0.8,0.1,1.3,0,2.1-0.1v-1.7c-1.1,0.2-2,0.1-2-0.6
	V7.3h2V5.5h-2V2.2L465.2,2.2z"/>
<path class="st0" d="M471.8,2.2h-2v3.3h-1.7v1.8h1.7v9.3c0,0.5,0.4,1.6,1.8,1.7c0.8,0.1,1.3,0,2.1-0.1v-1.7c-1.1,0.2-2,0.1-2-0.6
	V7.3h2V5.5h-2V2.2L471.8,2.2z"/>
<path class="st0" d="M485.5,7.7c0-1.2-1.3-2-2.9-2.4c-0.8-0.2-1.5-0.2-2.1-0.2c-1.1,0-1.9,0.2-2.5,0.5c-1.3,0.6-1.9,1.7-2,2.4
	l-0.1,1.1h1.9c0-0.6,0.2-2.3,2.5-2.3c1.3,0,3,0.4,3.2,1.3v1.5c0,0.7-0.7,0.9-1,0.9c-1.2,0.3-2.3,0.1-4.6,0.7
	c-1.3,0.4-2.4,1.2-2.6,3.2c-0.2,2.4,1.6,3.9,4.3,3.9c1.6,0,3-1.1,3.9-1.8c0.1,0.8,0.9,1.8,1.8,1.8c0.7,0,1.1-0.1,1.5-0.2v-1.6
	c-0.1,0.1-0.3,0.1-0.4,0.1c-0.5,0-0.9-0.4-0.9-0.7V7.7L485.5,7.7z M483.4,14.3c0,0.4-1.3,2.5-4,2.4c-1.1,0-2.2-0.6-2.2-2.1
	c0-0.9,0.8-1.5,1.2-1.7c1.2-0.5,3.4-0.5,5-1.1V14.3L483.4,14.3z"/>
<path class="st0" d="M489,5.5v12.3h2v-6.6c0-3.3,1.7-4.4,3.4-4.4c1.4,0,2.5,0.8,2.5,2.3v8.6h2V8.2c-0.3-1.8-1.3-2.4-2-2.8
	c-0.3-0.1-1.1-0.3-2-0.3c-0.9,0-1.9,0.1-2.4,0.6c-0.5,0.2-1,0.8-1.4,1.3h0V5.5H489L489,5.5z"/>
<path class="st0" d="M504.4,2.2h-2v3.3h-1.7v1.8h1.7v9.3c0,0.5,0.4,1.6,1.8,1.7c0.8,0.1,1.3,0,2.1-0.1v-1.7c-1.1,0.2-2,0.1-2-0.6
	V7.3h2V5.5h-2V2.2L504.4,2.2z"/>
<path class="st0" d="M507.8,14.2c0,1.2,0.3,3.4,3.1,4c0.7,0.2,1.6,0.2,2.4,0.2c0.8-0.1,1.6-0.2,2.3-0.5c1.3-0.6,2-1.8,2.2-3
	c0.2-1.2-0.3-2.4-1.3-3.1c-0.9-0.5-1.9-0.8-2.8-0.9c-1.2-0.3-2.2-0.5-2.9-0.9c-0.7-0.4-0.9-1.1-0.6-1.7c0.3-0.7,1.2-1.3,2.4-1.3
	c2.8,0,2.8,1.3,2.8,2h1.9c0-1.4-0.5-3.8-4.6-3.8c-2.4,0-4.5,1.3-4.5,3.7c0,1.8,0.8,2.7,1.8,3c1.1,0.5,3,0.9,4.6,1.2
	c1,0.3,1.3,0.9,1.3,1.6c0,0.6-0.4,1.2-0.8,1.5c-0.3,0.2-0.9,0.4-1.6,0.6c-0.6,0-1.3,0-1.7-0.1c-1.4-0.4-2.1-1.2-2.1-2.4H507.8
	L507.8,14.2z"/>
</svg>
